<?xml version="1.0" standalone="no"?>
<!DOCTYPE svg PUBLIC "-//W3C//DTD SVG 1.1//EN" "http://www.w3.org/Graphics/SVG/1.1/DTD/svg11.dtd" >
<!--
2014-10-23: Created.
-->
<svg xmlns="http://www.w3.org/2000/svg">
<metadata>
Created by FontForge 20120731 at Thu Oct 23 17:54:53 2014
 By root
Created by root with FontForge 2.0 (http://fontforge.sf.net)
</metadata>
<defs>
<font id="icons_mobiscroll" horiz-adv-x="439" >
  <font-face 
    font-family="icons_mobiscroll"
    font-weight="500"
    font-stretch="normal"
    units-per-em="512"
    panose-1="2 0 6 3 0 0 0 0 0 0"
    ascent="448"
    descent="-64"
    bbox="-0.5 -64.2601 516.668 448"
    underline-thickness="25.6"
    underline-position="-51.2"
    unicode-range="U+F100-F279"
  />
    <missing-glyph />
    <glyph glyph-name="uniF143" unicode="&#xf143;" horiz-adv-x="516" 
d="M258 267c21 0 40 -7 55 -22s23 -34 23 -55s-8 -40 -23 -55s-34 -23 -55 -23s-40 8 -55 23s-22 34 -22 55s7 40 22 55s34 22 55 22zM447 379c19 0 36 -7 49 -20s20 -30 20 -49v-241c0 -19 -7 -35 -20 -48s-30 -20 -49 -20h-378c-19 0 -36 7 -49 20s-20 29 -20 48v241
c0 19 7 36 20 49s30 20 49 20h60l14 37c3 9 9 16 18 22s19 10 28 10h138c9 0 19 -4 28 -10s16 -13 19 -22l13 -37h60zM258 69c33 0 61 12 85 36s36 52 36 85s-12 61 -36 85s-52 35 -85 35s-61 -11 -85 -35s-35 -52 -35 -85s11 -61 35 -85s52 -36 85 -36z" />
    <glyph glyph-name="uniF13E" unicode="&#xf13e;" horiz-adv-x="402" 
d="M110 73v-18c0 -2 -1 -5 -3 -7s-4 -2 -6 -2h-19c-2 0 -4 0 -6 2s-3 5 -3 7v18c0 2 1 5 3 7s4 2 6 2h19c2 0 4 0 6 -2s3 -5 3 -7zM110 146v-18c0 -2 -1 -4 -3 -6s-4 -3 -6 -3h-19c-2 0 -4 1 -6 3s-3 4 -3 6v18c0 2 1 5 3 7s4 2 6 2h19c2 0 4 0 6 -2s3 -5 3 -7zM183 146v-18
c0 -2 -1 -4 -3 -6s-4 -3 -6 -3h-19c-2 0 -4 1 -6 3s-3 4 -3 6v18c0 2 1 5 3 7s4 2 6 2h19c2 0 4 0 6 -2s3 -5 3 -7zM110 219v-18c0 -2 -1 -4 -3 -6s-4 -3 -6 -3h-19c-2 0 -4 1 -6 3s-3 4 -3 6v18c0 2 1 5 3 7s4 3 6 3h19c2 0 4 -1 6 -3s3 -5 3 -7zM329 73v-18
c0 -2 -1 -5 -3 -7s-4 -2 -6 -2h-18c-2 0 -5 0 -7 2s-2 5 -2 7v18c0 2 0 5 2 7s5 2 7 2h18c2 0 4 0 6 -2s3 -5 3 -7zM256 146v-18c0 -2 -1 -4 -3 -6s-4 -3 -6 -3h-18c-2 0 -5 1 -7 3s-3 4 -3 6v18c0 2 1 5 3 7s5 2 7 2h18c2 0 4 0 6 -2s3 -5 3 -7zM183 219v-18
c0 -2 -1 -4 -3 -6s-4 -3 -6 -3h-19c-2 0 -4 1 -6 3s-3 4 -3 6v18c0 2 1 5 3 7s4 3 6 3h19c2 0 4 -1 6 -3s3 -5 3 -7zM110 293v-19c0 -2 -1 -4 -3 -6s-4 -3 -6 -3h-19c-2 0 -4 1 -6 3s-3 4 -3 6v19c0 2 1 4 3 6s4 3 6 3h19c2 0 4 -1 6 -3s3 -4 3 -6zM329 146v-18
c0 -2 -1 -4 -3 -6s-4 -3 -6 -3h-18c-2 0 -5 1 -7 3s-2 4 -2 6v18c0 2 0 5 2 7s5 2 7 2h18c2 0 4 0 6 -2s3 -5 3 -7zM256 219v-18c0 -2 -1 -4 -3 -6s-4 -3 -6 -3h-18c-2 0 -5 1 -7 3s-3 4 -3 6v18c0 2 1 5 3 7s5 3 7 3h18c2 0 4 -1 6 -3s3 -5 3 -7zM183 293v-19
c0 -2 -1 -4 -3 -6s-4 -3 -6 -3h-19c-2 0 -4 1 -6 3s-3 4 -3 6v19c0 2 1 4 3 6s4 3 6 3h19c2 0 4 -1 6 -3s3 -4 3 -6zM110 366v-19c0 -2 -1 -4 -3 -6s-4 -3 -6 -3h-19c-2 0 -4 1 -6 3s-3 4 -3 6v19c0 2 1 4 3 6s4 3 6 3h19c2 0 4 -1 6 -3s3 -4 3 -6zM329 219v-18
c0 -2 -1 -4 -3 -6s-4 -3 -6 -3h-18c-2 0 -5 1 -7 3s-2 4 -2 6v18c0 2 0 5 2 7s5 3 7 3h18c2 0 4 -1 6 -3s3 -5 3 -7zM256 293v-19c0 -2 -1 -4 -3 -6s-4 -3 -6 -3h-18c-2 0 -5 1 -7 3s-3 4 -3 6v19c0 2 1 4 3 6s5 3 7 3h18c2 0 4 -1 6 -3s3 -4 3 -6zM183 366v-19
c0 -2 -1 -4 -3 -6s-4 -3 -6 -3h-19c-2 0 -4 1 -6 3s-3 4 -3 6v19c0 2 1 4 3 6s4 3 6 3h19c2 0 4 -1 6 -3s3 -4 3 -6zM329 293v-19c0 -2 -1 -4 -3 -6s-4 -3 -6 -3h-18c-2 0 -5 1 -7 3s-2 4 -2 6v19c0 2 0 4 2 6s5 3 7 3h18c2 0 4 -1 6 -3s3 -4 3 -6zM256 366v-19
c0 -2 -1 -4 -3 -6s-4 -3 -6 -3h-18c-2 0 -5 1 -7 3s-3 4 -3 6v19c0 2 1 4 3 6s5 3 7 3h18c2 0 4 -1 6 -3s3 -4 3 -6zM329 366v-19c0 -2 -1 -4 -3 -6s-4 -3 -6 -3h-18c-2 0 -5 1 -7 3s-2 4 -2 6v19c0 2 0 4 2 6s5 3 7 3h18c2 0 4 -1 6 -3s3 -4 3 -6zM256 -27h110v438h-329
v-438h109v64c0 2 1 4 3 6s4 3 6 3h92c2 0 4 -1 6 -3s3 -4 3 -6v-64v0zM402 430v-476c0 -5 -1 -9 -5 -13s-8 -5 -13 -5h-366c-5 0 -9 1 -13 5s-5 8 -5 13v476c0 5 1 9 5 13s8 5 13 5h366c5 0 9 -1 13 -5s5 -8 5 -13z" />
    <glyph glyph-name="uniF10D" unicode="&#xf10d;" horiz-adv-x="512" 
d="M512 64v-37c0 -5 -1 -8 -5 -12s-8 -6 -13 -6h-476c-5 0 -9 2 -13 6s-5 7 -5 12v37c0 5 1 9 5 13s8 5 13 5h476c5 0 9 -1 13 -5s5 -8 5 -13zM402 174v-37c0 -5 -1 -9 -5 -13s-8 -5 -13 -5h-366c-5 0 -9 1 -13 5s-5 8 -5 13v37c0 5 1 9 5 13s8 5 13 5h366c5 0 9 -1 13 -5
s5 -8 5 -13zM475 283v-36c0 -5 -1 -9 -5 -13s-8 -5 -13 -5h-439c-5 0 -9 1 -13 5s-5 8 -5 13v36c0 5 1 9 5 13s8 6 13 6h439c5 0 9 -2 13 -6s5 -8 5 -13zM366 393v-36c0 -5 -2 -9 -6 -13s-8 -6 -13 -6h-329c-5 0 -9 2 -13 6s-5 8 -5 13v36c0 5 1 9 5 13s8 5 13 5h329
c5 0 9 -1 13 -5s6 -8 6 -13z" />
    <glyph glyph-name="uniF1B6" unicode="&#xf1b6;" 
d="M366 -9c0 5 -2 9 -6 13s-8 5 -13 5s-8 -1 -12 -5s-6 -8 -6 -13s2 -9 6 -13s7 -5 12 -5s9 1 13 5s6 8 6 13zM402 209c0 36 -15 54 -47 54c-5 0 -10 0 -16 -1c-3 6 -8 10 -15 13s-14 5 -21 5s-14 -2 -20 -5c-10 10 -21 15 -34 15c-5 0 -10 -1 -16 -3s-11 -4 -14 -7v95
c0 10 -3 19 -10 26s-16 10 -26 10s-19 -4 -26 -11s-11 -15 -11 -25v-165c-4 0 -9 2 -14 5l-15 9s-12 6 -20 9s-16 5 -24 5c-13 0 -22 -5 -28 -13s-8 -19 -8 -33c0 -5 13 -13 39 -26c8 -5 15 -8 19 -10c12 -8 26 -18 41 -32s26 -23 31 -29c11 -13 16 -26 16 -40v-9h183v9
c0 14 3 30 9 48s12 36 18 55s9 36 9 51v0zM439 211c0 -25 -7 -56 -20 -92c-11 -31 -17 -53 -17 -64v-82c0 -10 -3 -19 -10 -26s-16 -11 -26 -11h-183c-10 0 -19 4 -26 11s-11 16 -11 26v82c0 2 0 4 -1 6s-2 5 -4 7s-3 4 -5 6l-7 7l-6 6s-3 3 -6 5s-4 4 -5 4
c-14 12 -27 22 -37 29c-4 2 -9 5 -17 9s-15 8 -21 11s-12 7 -18 11s-11 10 -14 16s-5 13 -5 20c0 24 6 43 19 59s31 23 54 23c13 0 26 -2 37 -6v107c0 20 7 37 21 51s32 22 52 22s37 -8 51 -22s22 -31 22 -51v-48c12 -1 23 -5 34 -11c4 1 8 1 12 1c19 0 36 -6 51 -17
c26 0 48 -9 63 -25s23 -37 23 -64v0z" />
    <glyph glyph-name="uniF185" unicode="&#xf185;" 
d="M366 183v137c0 5 -2 9 -6 13s-8 5 -13 5h-137c-8 0 -14 -4 -17 -11c-3 -8 -2 -14 4 -20l42 -41l-153 -153c-4 -4 -5 -7 -5 -12s1 -9 5 -13l29 -29c4 -4 8 -6 13 -6s9 2 13 6l152 152l42 -41c3 -4 7 -5 12 -5c2 0 6 0 8 1c7 3 11 9 11 17v0zM439 329v-274
c0 -23 -8 -42 -24 -58s-35 -24 -58 -24h-275c-23 0 -42 8 -58 24s-24 35 -24 58v274c0 23 8 42 24 58s35 24 58 24h275c23 0 42 -8 58 -24s24 -35 24 -58z" />
    <glyph glyph-name="uniF164" unicode="&#xf164;" horiz-adv-x="512" 
d="M256 338c-39 0 -75 -7 -109 -20s-61 -31 -81 -53s-29 -47 -29 -73c0 -21 6 -42 20 -61s33 -36 58 -50l24 -14l-7 -28c-5 -17 -11 -34 -20 -49c29 12 55 28 78 49l13 11l16 -2c13 -2 25 -2 37 -2c39 0 75 7 109 20s61 31 81 53s29 47 29 73s-9 51 -29 73s-47 40 -81 53
s-70 20 -109 20v0zM512 192c0 -33 -11 -64 -34 -92s-54 -50 -93 -66s-83 -25 -129 -25c-13 0 -27 0 -41 2c-38 -33 -82 -56 -132 -69c-9 -3 -20 -4 -32 -6h-2c-3 0 -6 1 -8 3s-3 5 -4 8v0c-1 1 0 2 0 4v2s1 2 2 3l1 3l2 2l3 3c1 2 3 5 8 10l10 10s5 7 9 12s7 10 9 14
s5 10 8 17s6 14 8 22c-30 17 -54 38 -71 63s-26 51 -26 80c0 33 11 64 34 92s54 50 93 66s83 25 129 25s90 -9 129 -25s70 -38 93 -66s34 -59 34 -92v0z" />
    <glyph glyph-name="uniF24A" unicode="&#xf24a;" 
d="M73 320c0 5 -1 9 -5 13s-8 5 -13 5s-9 -1 -13 -5s-5 -8 -5 -13s1 -9 5 -13s8 -5 13 -5s9 1 13 5s5 8 5 13zM402 155c0 7 -2 15 -6 24s-9 13 -15 13c3 3 5 8 7 14s3 10 3 15c0 13 -5 24 -15 34c3 6 5 13 5 20s-2 14 -5 21s-8 12 -14 15c1 6 2 11 2 16c0 16 -5 28 -14 36
s-22 12 -39 12h-37c-25 0 -57 -7 -97 -21c-1 0 -4 -1 -9 -3s-8 -3 -10 -4s-6 -2 -10 -3s-8 -2 -11 -3s-5 -1 -9 -2s-7 -1 -9 -1h-9v-183h9c3 0 6 0 10 -2s7 -5 11 -8s8 -7 11 -10s8 -8 12 -13s8 -9 10 -12s5 -6 9 -11s5 -8 6 -9c10 -13 18 -22 22 -26c8 -8 13 -18 17 -31
s7 -25 9 -36s6 -19 11 -24c18 0 30 4 36 13s10 22 10 41c0 11 -5 27 -14 46s-14 35 -14 46h101c10 0 18 4 25 11s11 15 11 25v0zM439 155c0 -20 -8 -37 -22 -51s-31 -22 -51 -22h-51c9 -19 14 -37 14 -55c0 -22 -3 -40 -10 -53s-16 -23 -29 -29s-27 -9 -43 -9
c-10 0 -19 4 -26 11c-6 6 -11 14 -15 23s-7 18 -8 26s-3 16 -5 24s-4 14 -8 18c-9 10 -20 22 -31 37c-19 25 -32 39 -39 44h-78c-10 0 -19 4 -26 11s-11 15 -11 25v183c0 10 4 19 11 26s16 11 26 11h82c4 0 17 3 39 11c24 8 46 15 64 19s37 6 57 6h32c27 0 49 -7 65 -22
s24 -36 24 -62v-1c11 -15 17 -32 17 -51c0 -4 1 -8 0 -12c7 -13 10 -27 10 -42c0 -7 0 -13 -2 -19c9 -14 14 -30 14 -47v0z" />
    <glyph glyph-name="uniF1B9" unicode="&#xf1b9;" horiz-adv-x="512" 
d="M256 -27c-5 0 -10 2 -13 5l-178 172c-2 2 -5 4 -8 7s-9 10 -16 19s-13 18 -19 28s-11 20 -15 34s-7 27 -7 40c0 42 12 74 36 98s58 35 101 35c12 0 24 -2 36 -6s23 -9 34 -16s19 -14 27 -20s15 -12 22 -19c7 7 14 13 22 19s16 13 27 20s22 12 34 16s24 6 36 6
c43 0 77 -11 101 -35s36 -56 36 -98s-21 -85 -65 -129l-178 -171c-3 -3 -8 -5 -13 -5z" />
    <glyph glyph-name="uniF1D0" unicode="&#xf1d0;" horiz-adv-x="512" 
d="M73 73v-55c0 -2 -1 -4 -3 -6s-4 -3 -6 -3h-55c-2 0 -4 1 -6 3s-3 4 -3 6v55c0 2 1 5 3 7s4 2 6 2h55c2 0 4 0 6 -2s3 -5 3 -7zM73 183v-55c0 -2 -1 -4 -3 -6s-4 -3 -6 -3h-55c-2 0 -4 1 -6 3s-3 4 -3 6v55c0 2 1 4 3 6s4 3 6 3h55c2 0 4 -1 6 -3s3 -4 3 -6zM73 293v-55
c0 -2 -1 -5 -3 -7s-4 -2 -6 -2h-55c-2 0 -4 0 -6 2s-3 5 -3 7v55c0 2 1 4 3 6s4 3 6 3h55c2 0 4 -1 6 -3s3 -4 3 -6zM512 73v-55c0 -2 -1 -4 -3 -6s-4 -3 -6 -3h-384c-2 0 -5 1 -7 3s-2 4 -2 6v55c0 2 0 5 2 7s5 2 7 2h384c2 0 4 0 6 -2s3 -5 3 -7zM73 402v-55
c0 -2 -1 -4 -3 -6s-4 -3 -6 -3h-55c-2 0 -4 1 -6 3s-3 4 -3 6v55c0 2 1 5 3 7s4 2 6 2h55c2 0 4 0 6 -2s3 -5 3 -7zM512 183v-55c0 -2 -1 -4 -3 -6s-4 -3 -6 -3h-384c-2 0 -5 1 -7 3s-2 4 -2 6v55c0 2 0 4 2 6s5 3 7 3h384c2 0 4 -1 6 -3s3 -4 3 -6zM512 293v-55
c0 -2 -1 -5 -3 -7s-4 -2 -6 -2h-384c-2 0 -5 0 -7 2s-2 5 -2 7v55c0 2 0 4 2 6s5 3 7 3h384c2 0 4 -1 6 -3s3 -4 3 -6zM512 402v-55c0 -2 -1 -4 -3 -6s-4 -3 -6 -3h-384c-2 0 -5 1 -7 3s-2 4 -2 6v55c0 2 0 5 2 7s5 2 7 2h384c2 0 4 0 6 -2s3 -5 3 -7z" />
    <glyph glyph-name="uniF142" unicode="&#xf142;" horiz-adv-x="475" 
d="M37 -27h402v292h-402v-292zM146 320v82c0 3 0 5 -2 7s-4 2 -7 2h-18c-3 0 -5 0 -7 -2s-2 -4 -2 -7v-82c0 -3 0 -5 2 -7s4 -2 7 -2h18c3 0 5 0 7 2s2 4 2 7zM366 320v82c0 3 -1 5 -3 7s-3 2 -6 2h-19c-3 0 -4 0 -6 -2s-3 -4 -3 -7v-82c0 -3 1 -5 3 -7s3 -2 6 -2h19
c3 0 4 0 6 2s3 4 3 7zM475 338v-365c0 -10 -3 -19 -10 -26s-16 -11 -26 -11h-402c-10 0 -19 4 -26 11s-11 16 -11 26v365c0 10 4 19 11 26s16 11 26 11h36v27c0 13 5 24 14 33s19 13 32 13h18c13 0 23 -4 32 -13s14 -20 14 -33v-27h110v27c0 13 4 24 13 33s19 13 32 13h19
c13 0 23 -4 32 -13s13 -20 13 -33v-27h37c10 0 19 -4 26 -11s10 -16 10 -26z" />
    <glyph glyph-name="uniF17F" unicode="&#xf17f;" horiz-adv-x="289" 
d="M279 75l10 -46c1 -2 0 -4 -1 -6s-3 -3 -5 -4l-1 -1c-1 0 -2 -1 -3 -1s-3 0 -5 -1s-4 -2 -6 -2s-4 -1 -7 -1s-6 -1 -9 -1s-6 -2 -9 -2s-7 -1 -11 -1h-11c-45 0 -84 12 -117 37s-56 59 -68 101h-27c-2 0 -4 1 -6 3s-3 4 -3 6v32c0 2 1 5 3 7s4 2 6 2h19c0 11 -1 21 0 30
h-19c-3 0 -4 1 -6 3s-3 4 -3 7v32c0 3 1 5 3 7s3 2 6 2h28c13 40 36 73 70 97s71 36 114 36c19 0 38 -2 56 -6c2 -1 3 -2 5 -4c1 -2 2 -5 1 -7l-12 -46c-1 -2 -2 -4 -4 -5s-5 -2 -7 -1h-1c-1 0 -2 1 -3 1l-5 1l-7 1l-7 1l-9 1h-8c-24 0 -46 -6 -65 -18s-32 -30 -42 -51h133
c3 0 5 -1 7 -3s3 -4 2 -7l-6 -33c-1 -5 -5 -7 -10 -7h-139c-1 -7 -1 -17 0 -30h131c3 0 5 -2 7 -4s3 -5 2 -8l-7 -32c0 -2 -1 -4 -3 -5s-4 -2 -6 -2h-110c9 -22 23 -40 42 -53s42 -20 66 -20c3 0 7 1 10 1s7 1 10 1s5 1 8 1s5 2 7 2s3 1 5 1l4 1h1c2 1 6 1 8 0s3 -3 4 -6v0z
" />
    <glyph glyph-name="uniF236" unicode="&#xf236;" horiz-adv-x="402" 
d="M366 247c0 5 -2 9 -6 13s-8 5 -13 5s-8 -1 -12 -5s-6 -8 -6 -13s2 -9 6 -13s7 -5 12 -5s9 1 13 5s6 8 6 13zM402 247c0 -12 -3 -23 -10 -32s-15 -16 -26 -20v-113c0 -30 -13 -56 -38 -77s-55 -32 -90 -32s-66 11 -91 32s-37 47 -37 77v38c-31 4 -58 16 -79 37
s-31 45 -31 72v146c0 5 1 9 5 13s8 5 13 5h5c3 6 7 10 13 13s12 5 19 5c10 0 19 -3 26 -10s10 -16 10 -26s-3 -19 -10 -26s-16 -11 -26 -11c-6 0 -12 2 -18 5v-114c0 -20 8 -38 26 -52s40 -22 65 -22s47 8 65 22s26 32 26 52v114c-6 -3 -12 -5 -18 -5c-10 0 -19 4 -26 11
s-10 16 -10 26s3 19 10 26s16 10 26 10c7 0 13 -2 19 -5s10 -7 13 -13h5c5 0 9 -1 13 -5s5 -8 5 -13v-146c0 -27 -10 -51 -31 -72s-48 -33 -79 -37v-38c0 -20 9 -37 27 -51s40 -22 65 -22s46 8 64 22s27 31 27 51v113c-11 4 -19 11 -26 20s-10 20 -10 32c0 15 5 28 16 39
s23 16 38 16s28 -5 39 -16s16 -24 16 -39v0z" />
    <glyph glyph-name="uniF13A" unicode="&#xf13a;" horiz-adv-x="366" 
d="M333 411c4 0 8 0 12 -2c6 -2 11 -7 15 -12s6 -12 6 -18v-368c0 -6 -2 -13 -6 -18s-9 -9 -15 -11c-4 -2 -7 -3 -12 -3c-9 0 -17 4 -24 10l-126 121l-126 -121c-7 -6 -15 -10 -24 -10c-4 0 -8 1 -12 3c-6 2 -11 6 -15 11s-6 12 -6 18v368c0 6 2 13 6 18s9 10 15 12
c4 2 8 2 12 2h300z" />
    <glyph glyph-name="uniF130" unicode="&#xf130;" horiz-adv-x="512" 
d="M18 9h-18v402h18v-402zM36 9h-9v402h9v-402zM63 9h-9v402h9v-402zM108 9h-9v402h9v-402zM153 9h-18v402h18v-402zM189 9h-9v402h9v-402zM207 9h-9v402h9v-402zM225 9h-9v402h9v-402zM269 9h-18v402h18v-402zM314 9h-18v402h18v-402zM350 9h-18v402h18v-402zM386 9h-18
v402h18v-402zM413 9h-18v402h18v-402zM467 9h-27v402h27v-402zM485 9h-9v402h9v-402zM512 9h-18v402h18v-402z" />
    <glyph glyph-name="uniF246" unicode="&#xf246;" horiz-adv-x="475" 
d="M219 155v-109c0 -10 -3 -19 -10 -26s-16 -11 -26 -11h-146c-10 0 -19 4 -26 11s-11 16 -11 26v109c0 10 4 19 11 26s16 11 26 11h146c10 0 19 -4 26 -11s10 -16 10 -26zM219 375v-110c0 -10 -3 -19 -10 -26s-16 -10 -26 -10h-146c-10 0 -19 3 -26 10s-11 16 -11 26v110
c0 10 4 19 11 26s16 10 26 10h146c10 0 19 -3 26 -10s10 -16 10 -26zM475 155v-109c0 -10 -3 -19 -10 -26s-16 -11 -26 -11h-146c-10 0 -19 4 -26 11s-11 16 -11 26v109c0 10 4 19 11 26s16 11 26 11h146c10 0 19 -4 26 -11s10 -16 10 -26zM475 375v-110
c0 -10 -3 -19 -10 -26s-16 -10 -26 -10h-146c-10 0 -19 3 -26 10s-11 16 -11 26v110c0 10 4 19 11 26s16 10 26 10h146c10 0 19 -3 26 -10s10 -16 10 -26z" />
    <glyph glyph-name="uniF22C" unicode="&#xf22c;" 
d="M439 329v-274c0 -23 -8 -42 -24 -58s-35 -24 -58 -24h-275c-23 0 -42 8 -58 24s-24 35 -24 58v274c0 23 8 42 24 58s35 24 58 24h275c23 0 42 -8 58 -24s24 -35 24 -58z" />
    <glyph glyph-name="uniF22F" unicode="&#xf22f;" horiz-adv-x="402" 
d="M265 48v-43l-202 -1v43zM334 147v-201v-10v0h-334v211h35v-177h265v177h34zM69 121l201 -18l-4 -43l-201 19zM88 212l195 -53l-11 -41l-195 52zM135 311l174 -102l-22 -38l-174 103zM238 406l113 -167l-35 -24l-114 166zM367 448l35 -199l-43 -8l-34 200z" />
    <glyph glyph-name="uniF14E" unicode="&#xf14e;" 
d="M196 77l175 175c4 4 6 8 6 13s-2 9 -6 13l-29 29c-4 4 -8 6 -13 6s-9 -2 -13 -6l-133 -133l-60 60c-4 4 -8 5 -13 5s-9 -1 -13 -5l-29 -29c-4 -4 -6 -8 -6 -13s2 -9 6 -13l102 -102c4 -4 8 -6 13 -6s9 2 13 6zM439 329v-274c0 -23 -8 -42 -24 -58s-35 -24 -58 -24h-275
c-23 0 -42 8 -58 24s-24 35 -24 58v274c0 23 8 42 24 58s35 24 58 24h275c23 0 42 -8 58 -24s24 -35 24 -58z" />
    <glyph glyph-name="uniF134" unicode="&#xf134;" horiz-adv-x="475" 
d="M242 -37c0 3 -1 5 -4 5c-11 0 -21 4 -29 12s-12 18 -12 29c0 3 -2 5 -5 5s-5 -2 -5 -5c0 -14 5 -25 15 -35s22 -15 36 -15c3 0 4 1 4 4v0zM475 46c0 -10 -3 -19 -10 -26s-16 -11 -26 -11h-128c0 -20 -8 -38 -22 -52s-31 -21 -51 -21s-38 7 -52 21s-21 32 -21 52h-128
c-10 0 -19 4 -26 11s-11 16 -11 26c36 31 64 68 82 113s28 93 28 143c0 31 9 57 27 75s44 29 76 33c-2 3 -3 7 -3 11c0 8 3 14 8 19s12 8 20 8s14 -3 19 -8s8 -11 8 -19c0 -4 0 -8 -2 -11c32 -4 57 -15 75 -33s28 -44 28 -75c0 -50 9 -98 27 -143s46 -82 82 -113v0z" />
    <glyph glyph-name="uniF1C7" unicode="&#xf1c7;" horiz-adv-x="512" 
d="M366 247c0 5 -2 9 -6 13s-8 5 -13 5c-33 0 -62 -5 -90 -14s-53 -22 -75 -38s-44 -37 -67 -63c-4 -4 -5 -8 -5 -13s1 -9 5 -13s8 -5 13 -5s9 1 13 5l21 21s15 14 19 18c26 24 52 41 77 51s54 15 89 15c5 0 9 1 13 5s6 8 6 13zM512 303c0 -18 -2 -36 -6 -55
c-9 -43 -26 -79 -52 -109s-61 -56 -103 -77c-41 -21 -82 -31 -125 -31c-28 0 -55 5 -81 14c-3 1 -12 5 -26 12s-23 10 -27 10c-3 0 -7 -3 -11 -9s-9 -13 -13 -20s-9 -14 -15 -20s-11 -9 -17 -9s-11 1 -15 3s-7 5 -9 7s-4 6 -7 12c0 1 -1 2 -2 3s-2 2 -2 3s-1 2 -1 3v4
c0 7 3 14 9 21s12 13 19 18s14 10 20 16s9 10 9 14c0 1 -1 5 -4 11s-5 11 -5 13c-2 10 -3 19 -3 29c0 22 5 43 13 63s20 38 34 53s31 29 49 40s37 20 58 27c10 3 24 6 41 7s35 3 52 3s34 0 51 1s32 3 46 7s26 9 33 16l8 9l9 8l7 6l11 4l12 1c7 0 14 -4 20 -13s11 -19 14 -32
s5 -24 7 -35s2 -21 2 -28v0z" />
    <glyph glyph-name="uniF221" unicode="&#xf221;" 
d="M335 144c0 10 -1 18 -5 26s-8 15 -14 20s-13 10 -21 14s-17 8 -24 10s-16 4 -25 6l-29 7c-6 1 -10 2 -13 3s-6 1 -10 3s-7 3 -9 5s-3 4 -4 6s-2 6 -2 9c0 15 14 22 41 22c8 0 16 -2 22 -4s11 -5 15 -8s8 -7 11 -10s7 -6 11 -8s9 -3 14 -3c9 0 17 3 22 9s8 13 8 22
c0 10 -5 20 -16 28s-25 16 -41 20s-34 6 -52 6c-13 0 -25 -1 -37 -4s-24 -8 -35 -14s-19 -14 -25 -25s-10 -22 -10 -36c0 -12 2 -22 6 -31s9 -15 16 -21s15 -10 23 -14s18 -6 29 -9l42 -11c17 -4 28 -7 32 -10c6 -4 9 -9 9 -17c0 -7 -3 -14 -11 -19s-18 -7 -30 -7
c-10 0 -19 2 -27 5s-13 7 -18 11s-9 9 -13 13s-8 8 -13 11s-10 4 -16 4c-10 0 -16 -2 -21 -8s-8 -13 -8 -22c0 -18 12 -33 35 -45s51 -19 83 -19c14 0 27 2 40 6s24 8 35 15s20 16 26 27s9 23 9 37v0zM439 82c0 -30 -11 -56 -32 -77s-48 -32 -78 -32c-25 0 -47 7 -67 22
c-15 -3 -29 -4 -43 -4c-27 0 -53 5 -78 16s-46 25 -64 43s-32 39 -43 64s-16 51 -16 78c0 14 2 28 5 43c-15 20 -23 42 -23 67c0 30 11 56 32 77s48 32 78 32c25 0 47 -7 67 -22c15 3 28 4 42 4c27 0 54 -5 79 -16s46 -25 64 -43s32 -39 43 -64s16 -51 16 -78
c0 -14 -2 -28 -5 -43c15 -20 23 -42 23 -67z" />
    <glyph glyph-name="uniF149" unicode="&#xf149;" 
d="M393 192l40 -39c6 -5 7 -12 5 -20s-6 -12 -14 -14l-54 -14l15 -53c2 -8 1 -14 -5 -20s-12 -7 -20 -5l-54 15l-13 -54c-2 -8 -7 -13 -15 -15h-5c-6 0 -11 2 -15 6l-38 39l-39 -39c-5 -6 -12 -8 -20 -6s-13 7 -15 15l-13 54l-53 -15c-8 -2 -14 -1 -20 5s-8 12 -6 20l15 53
l-53 14c-8 2 -13 6 -15 14s-1 15 5 20l40 39l-40 39c-6 5 -7 12 -5 20s7 12 15 14l53 14l-15 53c-2 8 0 14 6 20s12 7 20 5l53 -15l13 54c2 8 7 13 15 15s14 0 20 -6l39 -40l38 40c6 6 12 8 20 6s13 -7 15 -15l13 -54l54 15c8 2 14 1 20 -5s7 -12 5 -20l-15 -53l54 -14
c8 -2 12 -6 14 -14s1 -15 -5 -20z" />
    <glyph glyph-name="uniF129" unicode="&#xf129;" 
d="M367 293l-102 -101l102 -101l41 41c6 6 12 7 20 4c7 -3 11 -9 11 -17v-128c0 -5 -2 -9 -6 -13s-7 -5 -12 -5h-128c-8 0 -14 3 -17 11c-3 7 -2 14 4 20l41 41l-102 101l-101 -101l41 -41c6 -6 7 -13 4 -20c-3 -8 -9 -11 -17 -11h-128c-5 0 -9 1 -13 5s-5 8 -5 13v128
c0 8 3 14 11 17c7 3 14 2 20 -4l41 -41l102 101l-102 101l-41 -41c-4 -4 -8 -5 -13 -5c-2 0 -5 0 -7 1c-8 3 -11 9 -11 17v128c0 5 1 9 5 13s8 5 13 5h128c8 0 14 -3 17 -11c3 -7 2 -14 -4 -20l-41 -41l101 -101l102 101l-41 41c-6 6 -7 13 -4 20c3 8 9 11 17 11h128
c5 0 8 -1 12 -5s6 -8 6 -13v-128c0 -8 -4 -14 -11 -17c-2 -1 -5 -1 -7 -1c-5 0 -9 1 -13 5z" />
    <glyph glyph-name="uniF239" unicode="&#xf239;" horiz-adv-x="437" 
d="M255 57v-48h-71l-45 72l-7 12c-2 2 -2 4 -3 6h-1l-3 -6c-2 -4 -4 -7 -7 -12l-44 -72h-74v48h37l56 83l-53 78h-39v48h79l39 -65c0 -1 3 -5 7 -12c2 -2 2 -4 3 -6h1c1 2 1 4 3 6l7 12l40 65h74v-48h-36l-53 -77l59 -84h31v0zM437 -5v-59h-146l-2 8c-1 9 0 13 0 13
c0 12 2 23 7 33s12 19 19 25s15 13 24 19s17 11 24 15s13 10 18 16s8 12 8 18c0 7 -3 13 -9 18s-12 7 -20 7c-10 0 -19 -4 -28 -11c-3 -2 -6 -6 -10 -11l-30 26c5 7 11 13 18 19c15 12 33 18 54 18s38 -6 51 -17s19 -26 19 -45c0 -13 -3 -24 -10 -34s-15 -18 -24 -24
s-18 -12 -28 -18s-18 -12 -25 -18s-11 -14 -12 -21h66v23h36v0z" />
    <glyph glyph-name="uniF20D" unicode="&#xf20d;" horiz-adv-x="489" 
d="M285 180v1l-6 86c0 2 -1 4 -3 6s-4 3 -6 3h-50c-2 0 -5 -1 -7 -3s-2 -4 -2 -6l-7 -86v-1c0 -2 0 -4 2 -5s4 -2 6 -2h65c2 0 4 1 6 2s2 3 2 5zM489 55c0 -13 -4 -20 -12 -20h-189c2 0 4 1 6 3s2 4 2 6l-6 68c0 2 -1 4 -3 6s-4 3 -6 3h-73c-2 0 -4 -1 -6 -3s-3 -4 -3 -6
l-5 -68c0 -2 0 -4 2 -6s4 -3 6 -3h-190c-8 0 -12 7 -12 20c0 10 2 20 7 31l112 281c1 3 4 5 7 8s6 4 10 4h91c-2 0 -4 0 -6 -2s-3 -4 -3 -6l-4 -52c0 -3 0 -4 2 -6s4 -3 6 -3h45c2 0 4 1 6 3s2 3 2 6l-4 52c0 2 -1 4 -3 6s-4 2 -6 2h91c4 0 7 -1 10 -4s6 -5 7 -8l112 -281
c5 -11 7 -21 7 -31v0z" />
    <glyph glyph-name="uniF24F" unicode="&#xf24f;" 
d="M328 127c0 5 -1 9 -5 13l-52 52l52 52c4 4 5 8 5 13s-1 9 -5 13l-26 25c-4 4 -8 6 -13 6s-9 -2 -13 -6l-52 -51l-51 51c-4 4 -8 6 -13 6s-9 -2 -13 -6l-26 -25c-4 -4 -5 -8 -5 -13s1 -9 5 -13l52 -52l-52 -52c-4 -4 -5 -8 -5 -13s1 -9 5 -13l26 -25c4 -4 8 -6 13 -6
s9 2 13 6l51 51l52 -51c4 -4 8 -6 13 -6s9 2 13 6l26 25c4 4 5 8 5 13zM439 192c0 -40 -10 -76 -30 -110s-45 -60 -79 -80s-71 -29 -111 -29s-76 9 -110 29s-60 46 -80 80s-29 70 -29 110s9 76 29 110s46 60 80 80s70 29 110 29s77 -9 111 -29s59 -46 79 -80s30 -70 30 -110
z" />
    <glyph glyph-name="uniF1D3" unicode="&#xf1d3;" horiz-adv-x="512" 
d="M110 46c0 -15 -5 -28 -16 -39s-24 -16 -39 -16s-28 5 -39 16s-16 24 -16 39s5 28 16 39s24 16 39 16s28 -5 39 -16s16 -24 16 -39zM110 192c0 -15 -5 -28 -16 -39s-24 -16 -39 -16s-28 5 -39 16s-16 24 -16 39s5 28 16 39s24 16 39 16s28 -5 39 -16s16 -24 16 -39z
M512 73v-55c0 -2 -1 -4 -3 -6s-4 -3 -6 -3h-348c-2 0 -4 1 -6 3s-3 4 -3 6v55c0 2 1 5 3 7s4 2 6 2h348c2 0 4 0 6 -2s3 -5 3 -7zM110 338c0 -15 -5 -28 -16 -39s-24 -16 -39 -16s-28 5 -39 16s-16 24 -16 39s5 28 16 39s24 16 39 16s28 -5 39 -16s16 -24 16 -39zM512 219
v-54c0 -2 -1 -5 -3 -7s-4 -3 -6 -3h-348c-2 0 -4 1 -6 3s-3 5 -3 7v54c0 2 1 5 3 7s4 3 6 3h348c2 0 4 -1 6 -3s3 -5 3 -7zM512 366v-55c0 -2 -1 -5 -3 -7s-4 -2 -6 -2h-348c-2 0 -4 0 -6 2s-3 5 -3 7v55c0 2 1 4 3 6s4 3 6 3h348c2 0 4 -1 6 -3s3 -4 3 -6z" />
    <glyph glyph-name="uniF11E" unicode="&#xf11e;" 
d="M320 183c0 -2 -1 -5 -3 -7l-91 -91c-2 -2 -5 -3 -7 -3s-4 1 -6 3l-92 91c-3 3 -4 6 -2 10s5 6 9 6h55v101c0 3 0 4 2 6s4 3 7 3h55c3 0 4 -1 6 -3s3 -3 3 -6v-101h55c3 0 4 -1 6 -3s3 -3 3 -6v0zM219 347c-28 0 -54 -6 -78 -20s-42 -33 -56 -57s-21 -50 -21 -78
s7 -54 21 -78s32 -43 56 -57s50 -20 78 -20s54 6 78 20s43 33 57 57s21 50 21 78s-7 54 -21 78s-33 43 -57 57s-50 20 -78 20zM439 192c0 -40 -10 -76 -30 -110s-45 -60 -79 -80s-71 -29 -111 -29s-76 9 -110 29s-60 46 -80 80s-29 70 -29 110s9 76 29 110s46 60 80 80
s70 29 110 29s77 -9 111 -29s59 -46 79 -80s30 -70 30 -110z" />
    <glyph glyph-name="uniF253" unicode="&#xf253;" 
d="M293 283v-182c0 -5 -2 -9 -6 -13s-8 -6 -13 -6c-4 0 -7 2 -10 4l-128 91c-5 4 -8 9 -8 15s3 11 8 15l128 91c3 2 6 4 10 4c5 0 9 -2 13 -6s6 -8 6 -13v0zM366 55v274c0 2 -1 5 -3 7s-4 2 -6 2h-275c-2 0 -4 0 -6 -2s-3 -5 -3 -7v-274c0 -2 1 -5 3 -7s4 -2 6 -2h275
c2 0 4 0 6 2s3 5 3 7zM439 329v-274c0 -23 -8 -42 -24 -58s-35 -24 -58 -24h-275c-23 0 -42 8 -58 24s-24 35 -24 58v274c0 23 8 42 24 58s35 24 58 24h275c23 0 42 -8 58 -24s24 -35 24 -58z" />
    <glyph glyph-name="uniF14C" unicode="&#xf14c;" 
d="M367 238c0 5 -2 10 -5 13l-26 26c-4 4 -8 6 -13 6s-9 -2 -13 -6l-117 -116l-64 64c-4 4 -8 6 -13 6s-9 -2 -13 -6l-26 -25c-3 -3 -5 -8 -5 -13s2 -10 5 -13l104 -104c4 -4 7 -5 12 -5s10 1 14 5l155 155c3 3 5 8 5 13v0zM439 192c0 -40 -10 -76 -30 -110s-45 -60 -79 -80
s-71 -29 -111 -29s-76 9 -110 29s-60 46 -80 80s-29 70 -29 110s9 76 29 110s46 60 80 80s70 29 110 29s77 -9 111 -29s59 -46 79 -80s30 -70 30 -110z" />
    <glyph glyph-name="uniF153" unicode="&#xf153;" 
d="M333 123l29 29c4 4 5 8 5 13s-1 8 -5 12l-130 130c-4 4 -8 6 -13 6s-8 -2 -12 -6l-130 -130c-4 -4 -6 -7 -6 -12s2 -9 6 -13l29 -29c4 -4 8 -6 13 -6s9 2 13 6l87 87l88 -87c4 -4 8 -6 13 -6s9 2 13 6zM439 192c0 -40 -10 -76 -30 -110s-45 -60 -79 -80s-71 -29 -111 -29
s-76 9 -110 29s-60 46 -80 80s-29 70 -29 110s9 76 29 110s46 60 80 80s70 29 110 29s77 -9 111 -29s59 -46 79 -80s30 -70 30 -110z" />
    <glyph glyph-name="uniF124" unicode="&#xf124;" horiz-adv-x="445" 
d="M445 210c0 -10 -3 -18 -10 -25l-186 -187c-7 -7 -16 -10 -26 -10s-19 3 -26 10l-186 187c-7 7 -11 15 -11 25s4 19 11 26l21 22c7 7 16 10 26 10s19 -3 26 -10l84 -84v201c0 10 4 19 11 26s15 10 25 10h37c10 0 19 -3 26 -10s10 -16 10 -26v-201l84 84c7 7 16 10 26 10
s19 -3 26 -10l22 -22c7 -7 10 -16 10 -26z" />
    <glyph glyph-name="uniF1A5" unicode="&#xf1a5;" horiz-adv-x="291" 
d="M291 123v-105c0 -3 0 -4 -2 -6s-4 -3 -7 -3h-273c-3 0 -4 1 -6 3s-3 3 -3 6v43c0 2 1 5 3 7s4 2 6 2h28v110h-27c-3 0 -5 0 -7 2s-2 5 -2 7v37c0 3 0 5 2 7s4 2 7 2h27v64c0 33 11 60 35 81s54 31 90 31c35 0 67 -11 96 -35c2 -2 3 -4 3 -6s0 -5 -2 -7l-30 -36
c-2 -2 -4 -3 -6 -3s-5 0 -7 2c-1 1 -3 2 -7 5s-11 6 -20 9s-17 5 -26 5c-16 0 -30 -4 -40 -13s-14 -21 -14 -35v-62h87c2 0 4 0 6 -2s3 -4 3 -7v-37c0 -2 -1 -5 -3 -7s-4 -2 -6 -2h-87v-109h118v52c0 2 0 5 2 7s4 2 7 2h46c3 0 5 0 7 -2s2 -5 2 -7v0z" />
    <glyph glyph-name="uniF25F" unicode="&#xf25f;" horiz-adv-x="475" 
d="M256 211v-165c0 -20 -8 -38 -22 -52s-31 -21 -51 -21s-37 7 -51 21s-22 32 -22 52c0 5 1 9 5 13s8 5 13 5s9 -1 13 -5s5 -8 5 -13c0 -10 5 -19 12 -26s15 -11 25 -11s18 4 25 11s11 16 11 26v165c6 2 13 4 19 4s12 -2 18 -4zM475 204c0 -2 0 -5 -2 -7s-5 -2 -7 -2
s-4 0 -6 2c-9 9 -19 16 -27 20s-18 7 -29 7c-13 0 -26 -4 -37 -11s-21 -17 -29 -28c-1 -2 -3 -5 -5 -8s-3 -5 -4 -6c-2 -3 -5 -5 -8 -5s-6 2 -8 5c-1 1 -3 3 -5 6s-4 6 -5 8c-8 11 -18 21 -29 28s-23 11 -36 11s-26 -4 -37 -11s-21 -17 -29 -28c-1 -2 -3 -5 -5 -8
s-3 -5 -4 -6c-2 -3 -5 -5 -8 -5s-6 2 -8 5c-1 1 -3 3 -5 6s-4 6 -5 8c-8 11 -18 21 -29 28s-24 11 -37 11c-11 0 -21 -3 -29 -7s-17 -11 -26 -20c-2 -2 -5 -2 -7 -2s-4 0 -6 2s-3 5 -3 7v2c9 35 26 65 50 91s53 45 85 58s67 20 103 20c27 0 52 -4 78 -12s50 -18 71 -32
s39 -31 55 -53s27 -46 33 -72v-2v0zM256 411v-28c-8 0 -14 1 -18 1s-11 -1 -19 -1v28c0 5 2 9 6 13s8 6 13 6s9 -2 13 -6s5 -8 5 -13z" />
    <glyph glyph-name="uniF228" unicode="&#xf228;" horiz-adv-x="416" 
d="M376 73c0 12 -5 23 -13 33s-18 15 -29 15c-10 0 -18 -3 -24 -10s-9 -16 -9 -27s4 -20 11 -27s16 -11 29 -11c10 0 18 2 25 7s10 12 10 20v0zM201 37c0 -2 0 -5 -2 -7l-92 -91c-2 -2 -4 -3 -6 -3s-5 1 -7 3l-91 91c-3 3 -4 6 -2 10s4 6 8 6h55v393c0 3 1 4 3 6s3 3 6 3h55
c3 0 5 -1 7 -3s2 -3 2 -6v-393h55c3 0 5 -1 7 -3s2 -3 2 -6v0zM416 56c0 -12 -2 -23 -4 -34s-7 -23 -12 -33s-11 -19 -19 -27s-17 -14 -28 -19s-24 -7 -37 -7c-12 0 -22 2 -31 5c-5 2 -9 3 -12 4l12 32c3 -1 5 -2 8 -3c7 -2 15 -4 22 -4c16 0 28 6 38 17s16 25 19 42v0
c-4 -4 -10 -8 -18 -11s-16 -4 -24 -4c-20 0 -36 6 -49 20s-20 31 -20 50c0 20 7 37 21 51s31 20 52 20c23 0 42 -9 58 -27s24 -42 24 -72v0zM407 261v-32h-134v32h48v124v5v5v4v0l-2 -3c-2 -2 -5 -6 -8 -9l-18 -16l-23 24l55 53h35v-187h47z" />
    <glyph glyph-name="uniF1F2" unicode="&#xf1f2;" 
d="M115 131l44 -43l-15 -15h-16v28h-27v16zM234 243c3 -2 2 -6 -1 -9l-83 -83c-3 -3 -7 -4 -9 -1c-3 2 -2 6 1 9l83 83c3 3 7 4 9 1zM155 46l156 155l-82 82l-156 -155v-82h82zM329 219l26 27c5 5 8 11 8 19s-3 15 -8 20l-43 43c-5 5 -11 8 -19 8s-15 -3 -20 -8l-26 -26z
M439 329v-274c0 -23 -8 -42 -24 -58s-35 -24 -58 -24h-275c-23 0 -42 8 -58 24s-24 35 -24 58v274c0 23 8 42 24 58s35 24 58 24h275c23 0 42 -8 58 -24s24 -35 24 -58z" />
    <glyph glyph-name="uniF256" unicode="&#xf256;" horiz-adv-x="402" 
d="M146 238v-165c0 -3 0 -4 -2 -6s-4 -3 -7 -3h-18c-3 0 -5 1 -7 3s-2 3 -2 6v165c0 3 0 4 2 6s4 3 7 3h18c3 0 5 -1 7 -3s2 -3 2 -6zM219 238v-165c0 -3 0 -4 -2 -6s-4 -3 -7 -3h-18c-3 0 -5 1 -7 3s-2 3 -2 6v165c0 3 0 4 2 6s4 3 7 3h18c3 0 5 -1 7 -3s2 -3 2 -6z
M293 238v-165c0 -3 -1 -4 -3 -6s-4 -3 -7 -3h-18c-3 0 -4 1 -6 3s-3 3 -3 6v165c0 3 1 4 3 6s3 3 6 3h18c3 0 5 -1 7 -3s3 -3 3 -6zM329 31v271h-256v-271c0 -4 1 -8 2 -12s3 -5 4 -7s2 -3 3 -3h238c1 0 2 1 3 3s3 3 4 7s2 8 2 12v0zM137 338h128l-14 34c-1 2 -2 3 -4 3h-91
c-2 0 -4 -1 -5 -3zM402 329v-18c0 -3 0 -5 -2 -7s-4 -2 -7 -2h-27v-271c0 -16 -5 -29 -14 -41s-19 -17 -32 -17h-238c-13 0 -23 5 -32 16s-13 25 -13 41v272h-28c-3 0 -4 0 -6 2s-3 4 -3 7v18c0 3 1 5 3 7s3 2 6 2h88l20 48c3 7 9 13 16 18s14 7 22 7h92c8 0 15 -2 22 -7
s13 -11 16 -18l20 -48h88c3 0 5 0 7 -2s2 -4 2 -7v0z" />
    <glyph glyph-name="uniF21A" unicode="&#xf21a;" horiz-adv-x="475" 
d="M402 165v-74c0 -23 -8 -42 -24 -58s-35 -24 -58 -24h-238c-23 0 -42 8 -58 24s-24 35 -24 58v238c0 23 8 42 24 58s35 24 58 24h73c2 0 5 0 7 -2s2 -5 2 -7c0 -5 -2 -8 -7 -9c-15 -5 -27 -11 -38 -17c-2 -1 -4 -1 -5 -1h-32c-13 0 -23 -5 -32 -14s-13 -19 -13 -32v-238
c0 -13 4 -23 13 -32s19 -13 32 -13h238c13 0 23 4 32 13s14 19 14 32v62c0 4 2 6 5 8c5 2 10 5 15 10c3 3 6 5 10 3s6 -5 6 -9v0zM470 307l-110 -110c-3 -4 -8 -5 -13 -5c-2 0 -5 0 -7 1c-7 3 -11 9 -11 17v55h-46c-62 0 -103 -12 -125 -37c-23 -26 -30 -71 -21 -135
c1 -4 -2 -8 -6 -10c-2 0 -2 -1 -3 -1c-3 0 -5 2 -7 4l-6 9s-7 9 -12 19s-10 20 -14 29s-8 19 -11 32s-5 24 -5 35c0 9 0 18 1 26s2 17 4 26s5 17 8 25s8 15 14 23s12 16 19 22s16 11 27 17s23 10 36 14s28 7 45 9s36 3 56 3h46v55c0 8 4 14 11 17c2 1 5 1 7 1
c5 0 9 -1 13 -5l110 -110c4 -4 5 -8 5 -13s-1 -9 -5 -13v0z" />
    <glyph glyph-name="uniF215" unicode="&#xf215;" 
d="M110 9h219v110h-219v-110zM366 9h36v256c0 3 -1 6 -3 11s-3 8 -5 10l-81 80c-2 2 -4 4 -9 6s-8 3 -11 3v-119c0 -8 -3 -14 -8 -19s-12 -8 -20 -8h-164c-8 0 -15 3 -20 8s-8 11 -8 19v119h-36v-366h36v119c0 8 3 14 8 19s12 8 20 8h237c8 0 15 -3 20 -8s8 -11 8 -19v-119
v0zM256 274v92c0 2 -1 4 -3 6s-4 3 -6 3h-55c-2 0 -4 -1 -6 -3s-3 -4 -3 -6v-92c0 -2 1 -4 3 -6s4 -3 6 -3h55c2 0 4 1 6 3s3 4 3 6zM439 265v-265c0 -8 -3 -14 -8 -19s-12 -8 -20 -8h-384c-8 0 -14 3 -19 8s-8 11 -8 19v384c0 8 3 14 8 19s11 8 19 8h266c8 0 16 -1 25 -5
s16 -9 21 -14l80 -80c5 -5 10 -13 14 -22s6 -17 6 -25v0z" />
    <glyph glyph-name="uniF261" unicode="&#xf261;" horiz-adv-x="475" 
d="M125 85l-73 -73c-2 -2 -4 -3 -6 -3s-5 1 -7 3s-2 4 -2 6s0 5 2 7l73 73c2 2 5 3 7 3s4 -1 6 -3s3 -5 3 -7s-1 -4 -3 -6zM174 73v-91c0 -3 -1 -5 -3 -7s-3 -2 -6 -2s-5 0 -7 2s-3 4 -3 7v91c0 3 1 5 3 7s4 2 7 2s4 0 6 -2s3 -4 3 -7zM110 137c0 -3 -1 -4 -3 -6
s-3 -3 -6 -3h-92c-3 0 -4 1 -6 3s-3 3 -3 6s1 5 3 7s3 2 6 2h92c3 0 4 0 6 -2s3 -4 3 -7zM471 101c0 -23 -8 -42 -24 -58l-42 -42c-16 -16 -35 -24 -58 -24s-43 8 -59 24l-95 96c-4 4 -8 9 -12 16l68 5l78 -78c5 -5 12 -8 20 -8s14 3 19 8l42 41c5 5 8 13 8 20
c0 8 -3 14 -8 19l-78 79l5 68c7 -4 12 -8 16 -12l96 -96c16 -16 24 -36 24 -58v0zM295 307l-69 -5l-78 79c-5 5 -11 8 -19 8c-7 0 -14 -3 -20 -8l-42 -42c-5 -5 -8 -12 -8 -19c0 -8 3 -14 8 -19l79 -79l-5 -68c-7 4 -12 8 -16 12l-96 96c-16 16 -24 36 -24 58
c0 23 8 42 24 58l42 42c16 16 35 23 58 23s42 -8 58 -24l96 -96c4 -4 8 -9 12 -16v0zM475 283c0 -3 0 -4 -2 -6s-4 -3 -7 -3h-91c-3 0 -5 1 -7 3s-2 3 -2 6s0 5 2 7s4 3 7 3h91c3 0 5 -1 7 -3s2 -4 2 -7zM320 439v-92c0 -3 -1 -4 -3 -6s-3 -3 -6 -3s-5 1 -7 3s-2 3 -2 6v92
c0 3 0 4 2 6s4 3 7 3s4 -1 6 -3s3 -3 3 -6zM436 396l-73 -73c-2 -2 -4 -3 -6 -3s-5 1 -7 3s-3 4 -3 6s1 5 3 7l73 73c2 2 5 2 7 2s4 0 6 -2s3 -5 3 -7s-1 -4 -3 -6z" />
    <glyph glyph-name="uniF12E" unicode="&#xf12e;" 
d="M375 193c0 31 -8 58 -25 84l-215 -215c26 -17 54 -25 84 -25c21 0 42 4 61 12s35 19 49 33s26 31 34 50s12 40 12 61v0zM89 107l216 216c-26 17 -55 26 -86 26c-28 0 -54 -7 -78 -21s-42 -33 -56 -57s-21 -50 -21 -78c0 -31 8 -60 25 -86v0zM439 193
c0 -30 -6 -59 -18 -86s-26 -50 -46 -70s-43 -35 -70 -47s-56 -17 -86 -17s-58 5 -85 17s-50 27 -70 47s-35 43 -47 70s-17 56 -17 86s5 58 17 85s27 51 47 71s43 34 70 46s55 18 85 18s59 -6 86 -18s50 -26 70 -46s34 -44 46 -71s18 -55 18 -85z" />
    <glyph glyph-name="uniF192" unicode="&#xf192;" horiz-adv-x="516" 
d="M103 18v34c0 5 -2 9 -5 12s-7 5 -12 5h-34c-5 0 -9 -2 -12 -5s-6 -7 -6 -12v-34c0 -5 3 -9 6 -12s7 -5 12 -5h34c5 0 9 2 12 5s5 7 5 12zM103 121v34c0 5 -2 10 -5 13s-7 5 -12 5h-34c-5 0 -9 -2 -12 -5s-6 -8 -6 -13v-34c0 -5 3 -9 6 -12s7 -5 12 -5h34c5 0 9 2 12 5
s5 7 5 12zM103 224v35c0 5 -2 9 -5 12s-7 5 -12 5h-34c-5 0 -9 -2 -12 -5s-6 -7 -6 -12v-35c0 -5 3 -9 6 -12s7 -5 12 -5h34c5 0 9 2 12 5s5 7 5 12zM379 18v137c0 5 -2 10 -5 13s-8 5 -13 5h-206c-5 0 -9 -2 -12 -5s-5 -8 -5 -13v-137c0 -5 2 -9 5 -12s7 -5 12 -5h206
c5 0 10 2 13 5s5 7 5 12zM103 328v34c0 5 -2 9 -5 12s-7 5 -12 5h-34c-5 0 -9 -2 -12 -5s-6 -7 -6 -12v-34c0 -5 3 -10 6 -13s7 -5 12 -5h34c5 0 9 2 12 5s5 8 5 13zM482 18v34c0 5 -2 9 -5 12s-7 5 -12 5h-35c-5 0 -9 -2 -12 -5s-5 -7 -5 -12v-34c0 -5 2 -9 5 -12
s7 -5 12 -5h35c5 0 9 2 12 5s5 7 5 12zM379 224v138c0 5 -2 9 -5 12s-8 5 -13 5h-206c-5 0 -9 -2 -12 -5s-5 -7 -5 -12v-138c0 -5 2 -9 5 -12s7 -5 12 -5h206c5 0 10 2 13 5s5 7 5 12zM482 121v34c0 5 -2 10 -5 13s-7 5 -12 5h-35c-5 0 -9 -2 -12 -5s-5 -8 -5 -13v-34
c0 -5 2 -9 5 -12s7 -5 12 -5h35c5 0 9 2 12 5s5 7 5 12zM482 224v35c0 5 -2 9 -5 12s-7 5 -12 5h-35c-5 0 -9 -2 -12 -5s-5 -7 -5 -12v-35c0 -5 2 -9 5 -12s7 -5 12 -5h35c5 0 9 2 12 5s5 7 5 12zM482 328v34c0 5 -2 9 -5 12s-7 5 -12 5h-35c-5 0 -9 -2 -12 -5s-5 -7 -5 -12
v-34c0 -5 2 -10 5 -13s7 -5 12 -5h35c5 0 9 2 12 5s5 8 5 13zM516 371v-362c0 -12 -4 -22 -12 -30s-19 -13 -31 -13h-430c-12 0 -22 5 -30 13s-13 18 -13 30v362c0 12 5 22 13 30s18 13 30 13h430c12 0 23 -5 31 -13s12 -18 12 -30z" />
    <glyph glyph-name="uniF145" unicode="&#xf145;" horiz-adv-x="293" 
d="M293 247c0 -5 -2 -9 -6 -13l-128 -128c-4 -4 -8 -5 -13 -5s-9 1 -13 5l-128 128c-4 4 -5 8 -5 13s1 9 5 13s8 5 13 5h256c5 0 9 -1 13 -5s6 -8 6 -13z" />
    <glyph glyph-name="uniF190" unicode="&#xf190;" horiz-adv-x="366" 
d="M293 55v18c0 3 -1 5 -3 7s-4 2 -7 2h-201c-3 0 -4 0 -6 -2s-3 -4 -3 -7v-18c0 -3 1 -5 3 -7s3 -2 6 -2h201c3 0 5 0 7 2s3 4 3 7zM293 128v18c0 3 -1 5 -3 7s-4 2 -7 2h-201c-3 0 -4 0 -6 -2s-3 -4 -3 -7v-18c0 -3 1 -5 3 -7s3 -2 6 -2h201c3 0 5 0 7 2s3 4 3 7zM366 229
v-229c0 -8 -3 -14 -8 -19s-12 -8 -20 -8h-311c-8 0 -14 3 -19 8s-8 11 -8 19v384c0 8 3 14 8 19s11 8 19 8h156v-155c0 -8 3 -14 8 -19s11 -8 19 -8h156v0zM365 265h-146v146c16 -3 28 -9 38 -19l89 -89c10 -10 16 -22 19 -38z" />
    <glyph glyph-name="uniF18E" unicode="&#xf18e;" horiz-adv-x="366" 
d="M366 229v-229c0 -8 -3 -14 -8 -19s-12 -8 -20 -8h-311c-8 0 -14 3 -19 8s-8 11 -8 19v384c0 8 3 14 8 19s11 8 19 8h156v-155c0 -8 3 -14 8 -19s11 -8 19 -8h156v0zM365 265h-146v146c16 -3 28 -9 38 -19l89 -89c10 -10 16 -22 19 -38z" />
    <glyph glyph-name="uniF15B" unicode="&#xf15b;" horiz-adv-x="516" 
d="M516 138c0 -29 -10 -53 -30 -73s-44 -30 -73 -30h-293c-33 0 -61 11 -85 35s-35 52 -35 85c0 24 6 45 19 65s29 34 50 44v12c0 38 13 70 40 97s60 41 98 41c28 0 54 -8 77 -24s39 -37 50 -62c13 11 28 17 45 17c19 0 35 -7 48 -20s20 -30 20 -49c0 -13 -4 -26 -11 -37
c23 -5 43 -17 58 -36s22 -41 22 -65v0z" />
    <glyph glyph-name="uniF193" unicode="&#xf193;" horiz-adv-x="403" 
d="M401 364c3 -8 2 -14 -4 -20l-141 -141v-212c0 -8 -4 -14 -11 -17c-2 -1 -5 -1 -7 -1c-5 0 -10 1 -13 5l-73 73c-4 4 -5 8 -5 13v139l-141 141c-6 6 -7 12 -4 20c3 7 9 11 17 11h365c8 0 14 -4 17 -11v0z" />
    <glyph glyph-name="uniF148" unicode="&#xf148;" horiz-adv-x="293" 
d="M293 101c0 -5 -2 -9 -6 -13s-8 -6 -13 -6h-256c-5 0 -9 2 -13 6s-5 8 -5 13s1 8 5 12l128 128c4 4 8 6 13 6s9 -2 13 -6l128 -128c4 -4 6 -7 6 -12z" />
    <glyph glyph-name="uniF21E" unicode="&#xf21e;" horiz-adv-x="448" 
d="M183 37v-6v-8s-1 -4 -1 -6s-1 -5 -2 -6s-4 -2 -6 -2h-92c-23 0 -42 8 -58 24s-24 35 -24 58v202c0 23 8 42 24 58s35 24 58 24h92c2 0 4 -1 6 -3s3 -4 3 -6v-6v-8s-1 -4 -1 -6s-1 -5 -2 -6s-4 -2 -6 -2h-92c-13 0 -23 -4 -32 -13s-13 -19 -13 -32v-202
c0 -13 4 -23 13 -32s19 -13 32 -13h89l4 -1h3l2 -2l2 -3l1 -3v0zM448 192c0 -5 -1 -9 -5 -13l-156 -155c-4 -4 -8 -6 -13 -6s-9 2 -13 6s-5 8 -5 13v82h-128c-5 0 -9 1 -13 5s-5 8 -5 13v110c0 5 1 9 5 13s8 5 13 5h128v82c0 5 1 9 5 13s8 6 13 6s9 -2 13 -6l156 -155
c4 -4 5 -8 5 -13v0z" />
    <glyph glyph-name="uniF1F1" unicode="&#xf1f1;" horiz-adv-x="433" 
d="M104 9l26 26l-67 67l-26 -26v-30h36v-37h31v0zM253 274c0 4 -2 7 -6 7c-2 0 -4 -1 -5 -2l-155 -155c-1 -1 -2 -3 -2 -5c0 -4 2 -6 6 -6c2 0 4 1 5 2l155 154c1 1 2 3 2 5zM238 329l119 -119l-238 -237h-119v118zM433 302c0 -10 -4 -19 -11 -26l-47 -47l-119 118l47 48
c7 7 16 10 26 10s19 -3 26 -10l67 -67c7 -7 11 -16 11 -26v0z" />
    <glyph glyph-name="uniF24D" unicode="&#xf24d;" horiz-adv-x="481" 
d="M277 319l90 -90l-163 -164l-90 90zM217 39l176 177c4 4 6 8 6 13s-2 8 -6 12l-103 104c-3 3 -8 5 -13 5s-10 -2 -13 -5l-176 -177c-4 -4 -6 -8 -6 -13s2 -8 6 -12l103 -104c3 -3 8 -5 13 -5s10 2 13 5zM471 221l-259 -259c-7 -7 -16 -11 -26 -11s-19 4 -26 11l-36 36
c11 11 16 24 16 39s-5 27 -16 38s-24 16 -39 16s-28 -5 -39 -16l-35 36c-7 7 -11 16 -11 26s4 19 11 26l259 259c7 7 16 11 26 11s18 -4 25 -11l36 -36c-11 -11 -16 -24 -16 -39s5 -27 16 -38s24 -16 39 -16s28 5 39 16l36 -36c7 -7 10 -16 10 -26s-3 -19 -10 -26v0z" />
    <glyph glyph-name="uniF1B4" unicode="&#xf1b4;" horiz-adv-x="512" 
d="M393 46h9v183h-9c-7 0 -13 1 -19 3s-12 6 -18 11s-10 9 -14 13s-8 9 -14 15c0 1 -1 1 -1 1s-1 1 -1 2s-2 1 -2 1c-14 15 -24 30 -32 42c-3 4 -6 10 -11 19c0 1 -1 2 -3 6s-3 8 -5 11s-4 6 -6 10s-4 7 -6 9s-3 3 -5 3c-14 0 -25 -3 -33 -9s-13 -15 -13 -28
c0 -8 2 -16 5 -24s6 -14 9 -19s6 -11 9 -16s5 -10 5 -14h-165c-10 0 -18 -4 -25 -11s-11 -15 -11 -25s3 -19 10 -26s16 -11 26 -11h95c-3 -3 -5 -8 -7 -14s-3 -10 -3 -15c0 -13 5 -24 15 -34c-3 -6 -5 -13 -5 -20s2 -14 5 -21s7 -12 13 -15c-1 -5 -1 -10 -1 -16
c0 -16 5 -28 14 -36s22 -12 39 -12c16 0 33 3 52 9s37 13 55 19s34 9 48 9v0zM475 64c0 5 -1 9 -5 13s-8 5 -13 5s-9 -1 -13 -5s-5 -8 -5 -13s1 -9 5 -13s8 -5 13 -5s9 1 13 5s5 8 5 13zM512 229v-183c0 -10 -4 -19 -11 -26s-16 -11 -26 -11h-82c-11 0 -33 -6 -64 -17
c-36 -13 -66 -19 -90 -19c-27 0 -49 7 -66 22s-25 35 -25 62l1 1c-12 14 -18 32 -18 51c0 4 0 8 1 12c-6 11 -10 22 -11 34h-48c-20 0 -37 8 -51 22s-22 32 -22 52s8 37 22 51s31 22 51 22h107c-4 11 -6 23 -6 36c0 23 7 41 23 54s35 19 59 19c7 0 14 -2 20 -5s12 -8 16 -14
s8 -12 11 -18s7 -12 11 -20l9 -18c7 -10 17 -23 29 -37c0 -1 2 -2 4 -5s4 -5 5 -6l6 -6s5 -4 7 -6l6 -6s5 -3 7 -4s4 -1 6 -1h82c10 0 19 -4 26 -11s11 -15 11 -25v0z" />
    <glyph glyph-name="uniF171" unicode="&#xf171;" horiz-adv-x="512" 
d="M110 293v-165c0 -2 -1 -4 -3 -6s-4 -3 -6 -3c-3 0 -5 0 -7 2l-82 83c-2 2 -3 3 -3 6s1 5 3 7l82 82c2 2 4 3 7 3c2 0 4 -1 6 -3s3 -4 3 -6zM512 73v-55c0 -2 -1 -4 -3 -6s-4 -3 -6 -3h-494c-2 0 -4 1 -6 3s-3 4 -3 6v55c0 2 1 5 3 7s4 2 6 2h494c2 0 4 0 6 -2s3 -5 3 -7z
M512 183v-55c0 -2 -1 -4 -3 -6s-4 -3 -6 -3h-311c-2 0 -4 1 -6 3s-3 4 -3 6v55c0 2 1 4 3 6s4 3 6 3h311c2 0 4 -1 6 -3s3 -4 3 -6zM512 293v-55c0 -2 -1 -5 -3 -7s-4 -2 -6 -2h-311c-2 0 -4 0 -6 2s-3 5 -3 7v55c0 2 1 4 3 6s4 3 6 3h311c2 0 4 -1 6 -3s3 -4 3 -6zM512 402
v-55c0 -2 -1 -4 -3 -6s-4 -3 -6 -3h-494c-2 0 -4 1 -6 3s-3 4 -3 6v55c0 2 1 5 3 7s4 2 6 2h494c2 0 4 0 6 -2s3 -5 3 -7z" />
    <glyph glyph-name="uniF1BD" unicode="&#xf1bd;" horiz-adv-x="402" 
d="M323 277l4 50h-252l13 -152h175l-6 -65l-56 -15l-56 15l-4 40h-50l6 -80l104 -28h1v0l102 28l15 156h-184l-5 51h193zM0 411h402l-36 -410l-165 -47l-164 47z" />
    <glyph glyph-name="uniF177" unicode="&#xf177;" horiz-adv-x="475" 
d="M97 246l141 -87l-98 -82l-140 92zM378 87v-30l-140 -84v0v0v0v0l-140 84v30l42 -27l98 81v1v-1v1v-1l98 -81zM140 414l98 -81l-141 -87l-97 77zM379 246l96 -77l-139 -92l-98 82zM336 414l139 -91l-96 -77l-141 87z" />
    <glyph glyph-name="uniF1D9" unicode="&#xf1d9;" horiz-adv-x="219" 
d="M219 307c-2 -4 -5 -5 -9 -5h-64v-357c0 -3 0 -4 -2 -6s-4 -3 -7 -3h-55c-3 0 -4 1 -6 3s-3 3 -3 6v357h-64c-4 0 -6 1 -8 5s-1 7 1 10l100 110c2 2 5 3 7 3c3 0 5 -1 7 -3l101 -110c2 -3 4 -6 2 -10v0z" />
    <glyph glyph-name="uniF250" unicode="&#xf250;" 
d="M313 140l-41 -42c-2 -2 -5 -3 -7 -3s-4 1 -6 3l-40 39l-39 -39c-2 -2 -4 -3 -6 -3s-5 1 -7 3l-42 42c-2 2 -2 4 -2 6s0 5 2 7l40 39l-40 39c-2 2 -2 5 -2 7s0 4 2 6l42 42c2 2 5 3 7 3s4 -1 6 -3l39 -39l40 39c2 2 4 3 6 3s5 -1 7 -3l41 -42c2 -2 3 -4 3 -6s-1 -5 -3 -7
l-39 -39l39 -39c2 -2 3 -5 3 -7s-1 -4 -3 -6zM375 192c0 28 -7 54 -21 78s-33 43 -57 57s-50 20 -78 20s-54 -6 -78 -20s-42 -33 -56 -57s-21 -50 -21 -78s7 -54 21 -78s32 -43 56 -57s50 -20 78 -20s54 6 78 20s43 33 57 57s21 50 21 78zM439 192c0 -40 -10 -76 -30 -110
s-45 -60 -79 -80s-71 -29 -111 -29s-76 9 -110 29s-60 46 -80 80s-29 70 -29 110s9 76 29 110s46 60 80 80s70 29 110 29s77 -9 111 -29s59 -46 79 -80s30 -70 30 -110z" />
    <glyph glyph-name="uniF151" unicode="&#xf151;" 
d="M260 49l29 30c4 4 5 7 5 12s-1 9 -5 13l-88 88l88 88c4 4 5 8 5 13s-1 8 -5 12l-29 30c-4 4 -8 5 -13 5s-9 -1 -13 -5l-130 -130c-4 -4 -5 -8 -5 -13s1 -9 5 -13l130 -130c4 -4 8 -5 13 -5s9 1 13 5zM439 192c0 -40 -10 -76 -30 -110s-45 -60 -79 -80s-71 -29 -111 -29
s-76 9 -110 29s-60 46 -80 80s-29 70 -29 110s9 76 29 110s46 60 80 80s70 29 110 29s77 -9 111 -29s59 -46 79 -80s30 -70 30 -110z" />
    <glyph glyph-name="uniF15C" unicode="&#xf15c;" horiz-adv-x="516" 
d="M344 198c0 3 0 5 -2 7s-3 2 -6 2h-61v95c0 2 0 4 -2 6s-4 2 -6 2h-52c-2 0 -4 0 -6 -2s-3 -4 -3 -6v-95h-60c-2 0 -4 0 -6 -2s-2 -5 -2 -7c0 -3 0 -4 2 -6l95 -94c2 -2 3 -3 6 -3s4 1 6 3l94 94c2 2 3 4 3 6v0zM516 138c0 -29 -10 -53 -30 -73s-44 -30 -73 -30h-293
c-33 0 -61 11 -85 35s-35 52 -35 85c0 23 6 45 19 65s29 34 50 44v12c0 38 13 70 40 97s60 41 98 41c28 0 53 -8 76 -24s40 -36 51 -62c13 11 28 17 45 17c19 0 35 -7 48 -20s20 -30 20 -49c0 -14 -4 -26 -11 -37c23 -6 43 -18 58 -37s22 -40 22 -64v0z" />
    <glyph glyph-name="uniF1E4" unicode="&#xf1e4;" horiz-adv-x="395" 
d="M74 178l-29 -29c-8 20 -12 40 -12 61v37c0 5 1 9 5 13s8 5 13 5s9 -1 13 -5s5 -8 5 -13v-37c0 -10 2 -21 5 -32v0zM392 350l-103 -103v-37c0 -25 -9 -46 -27 -64s-40 -27 -65 -27c-10 0 -21 1 -31 5l-27 -27c18 -10 37 -15 58 -15c35 0 66 13 91 38s37 55 37 90v37
c0 5 2 9 6 13s8 5 13 5s9 -1 13 -5s5 -8 5 -13v-37c0 -42 -14 -79 -42 -110s-63 -48 -104 -53v-38h73c5 0 9 -1 13 -5s5 -8 5 -13s-1 -9 -5 -13s-8 -5 -13 -5h-183c-5 0 -9 1 -13 5s-5 8 -5 13s1 9 5 13s8 5 13 5h73v38c-24 2 -46 10 -67 23l-73 -73c-2 -2 -4 -2 -6 -2
s-5 0 -7 2l-23 24c-2 2 -3 4 -3 6s1 5 3 7l352 353c2 2 5 2 7 2s5 0 7 -2l23 -24c2 -2 3 -4 3 -6s-1 -5 -3 -7v0zM283 388l-177 -178v147c0 25 9 46 27 64s39 27 64 27c19 0 37 -6 53 -17s27 -25 33 -43v0z" />
    <glyph glyph-name="uniF19C" unicode="&#xf19c;" horiz-adv-x="475" 
d="M475 274v-201c0 -18 -5 -32 -18 -45s-28 -19 -46 -19h-347c-18 0 -32 6 -45 19s-19 27 -19 45v274c0 18 6 33 19 46s27 18 45 18h91c18 0 33 -5 46 -18s18 -28 18 -46v-9h192c18 0 33 -6 46 -19s18 -27 18 -45v0z" />
    <glyph glyph-name="uniF1C5" unicode="&#xf1c5;" horiz-adv-x="516" 
d="M103 134v-26c0 -3 -1 -4 -4 -4h-26c-3 0 -4 1 -4 4v26c0 3 1 4 4 4h26c3 0 4 -1 4 -4zM138 203v-26c0 -3 -2 -4 -5 -4h-60c-3 0 -4 1 -4 4v26c0 3 1 4 4 4h60c3 0 5 -1 5 -4zM103 272v-26c0 -3 -1 -5 -4 -5h-26c-3 0 -4 2 -4 5v26c0 3 1 4 4 4h26c3 0 4 -1 4 -4zM379 134
v-26c0 -3 -2 -4 -5 -4h-232c-3 0 -4 1 -4 4v26c0 3 1 4 4 4h232c3 0 5 -1 5 -4zM207 203v-26c0 -3 -2 -4 -5 -4h-26c-3 0 -4 1 -4 4v26c0 3 1 4 4 4h26c3 0 5 -1 5 -4zM172 272v-26c0 -3 -1 -5 -4 -5h-26c-3 0 -4 2 -4 5v26c0 3 1 4 4 4h26c3 0 4 -1 4 -4zM275 203v-26
c0 -3 -1 -4 -4 -4h-26c-3 0 -4 1 -4 4v26c0 3 1 4 4 4h26c3 0 4 -1 4 -4zM241 272v-26c0 -3 -1 -5 -4 -5h-26c-3 0 -4 2 -4 5v26c0 3 1 4 4 4h26c3 0 4 -1 4 -4zM344 203v-26c0 -3 -1 -4 -4 -4h-26c-3 0 -4 1 -4 4v26c0 3 1 4 4 4h26c3 0 4 -1 4 -4zM447 134v-26
c0 -3 -1 -4 -4 -4h-26c-3 0 -4 1 -4 4v26c0 3 1 4 4 4h26c3 0 4 -1 4 -4zM310 272v-26c0 -3 -2 -5 -5 -5h-25c-3 0 -5 2 -5 5v26c0 3 2 4 5 4h25c3 0 5 -1 5 -4zM379 272v-26c0 -3 -2 -5 -5 -5h-25c-3 0 -5 2 -5 5v26c0 3 2 4 5 4h25c3 0 5 -1 5 -4zM447 272v-95
c0 -3 -1 -4 -4 -4h-60c-3 0 -4 1 -4 4v26c0 3 1 4 4 4h30v65c0 3 1 4 4 4h26c3 0 4 -1 4 -4zM482 69v241h-448v-241h448zM516 310v-241c0 -9 -3 -17 -10 -24s-15 -10 -24 -10h-448c-9 0 -17 3 -24 10s-10 15 -10 24v241c0 9 3 18 10 25s15 10 24 10h448c9 0 17 -3 24 -10
s10 -16 10 -25z" />
    <glyph glyph-name="uniF12F" unicode="&#xf12f;" horiz-adv-x="516" 
d="M138 173v-104h-69v104h69zM241 310v-241h-69v241h69zM344 241v-172h-69v172h69zM447 345v-276h-68v276h68zM482 44v327c0 2 -1 4 -3 6s-4 2 -6 2h-430c-2 0 -4 0 -6 -2s-3 -4 -3 -6v-327c0 -2 1 -4 3 -6s4 -3 6 -3h430c2 0 4 1 6 3s3 4 3 6zM516 371v-327
c0 -12 -4 -23 -12 -31s-19 -12 -31 -12h-430c-12 0 -22 4 -30 12s-13 19 -13 31v327c0 12 5 22 13 30s18 13 30 13h430c12 0 23 -5 31 -13s12 -18 12 -30z" />
    <glyph glyph-name="uniF11B" unicode="&#xf11b;" horiz-adv-x="475" 
d="M293 210c0 5 -2 9 -6 13s-8 6 -13 6h-73c-5 0 -9 -2 -13 -6s-5 -8 -5 -13s1 -9 5 -13s8 -5 13 -5h73c5 0 9 1 13 5s6 8 6 13zM457 265v-274c0 -5 -1 -9 -5 -13s-8 -5 -13 -5h-402c-5 0 -9 1 -13 5s-6 8 -6 13v274c0 5 2 9 6 13s8 5 13 5h402c5 0 9 -1 13 -5s5 -8 5 -13z
M475 393v-73c0 -5 -1 -9 -5 -13s-8 -5 -13 -5h-439c-5 0 -9 1 -13 5s-5 8 -5 13v73c0 5 1 9 5 13s8 5 13 5h439c5 0 9 -1 13 -5s5 -8 5 -13z" />
    <glyph glyph-name="uniF17E" unicode="&#xf17e;" horiz-adv-x="516" 
d="M241 69l90 104h-206l-91 -104h207zM513 359c3 -6 4 -12 3 -19s-4 -13 -8 -18l-241 -275c-7 -8 -16 -12 -26 -12h-207c-7 0 -12 1 -18 5s-10 9 -13 15s-4 12 -3 19s5 13 9 18l241 275c7 8 15 12 25 12h207c7 0 13 -1 19 -5s9 -9 12 -15z" />
    <glyph glyph-name="uniF1BE" unicode="&#xf1be;" 
d="M292 174h91c0 1 -1 1 -1 2s-1 1 -1 2l-60 142h-203l-60 -142s-1 -1 -1 -2s-1 -2 -1 -2h91l27 -55h91zM439 165v-138c0 -5 -2 -8 -6 -12s-7 -6 -12 -6h-403c-5 0 -9 2 -13 6s-5 7 -5 12v138c0 12 2 23 7 35l68 158c2 5 6 9 11 12s10 5 15 5h237c5 0 10 -2 15 -5
s9 -7 11 -12l68 -158c5 -12 7 -23 7 -35z" />
    <glyph glyph-name="uniF259" unicode="&#xf259;" horiz-adv-x="494" 
d="M165 46c0 10 -4 18 -11 25s-16 11 -26 11s-19 -4 -26 -11s-11 -15 -11 -25s4 -19 11 -26s16 -11 26 -11s19 4 26 11s11 16 11 26zM55 192h110v73h-46c-2 0 -4 0 -6 -2l-56 -56c-2 -2 -2 -4 -2 -6v-9v0zM421 46c0 10 -4 18 -11 25s-16 11 -26 11s-19 -4 -26 -11
s-11 -15 -11 -25s4 -19 11 -26s16 -11 26 -11s19 4 26 11s11 16 11 26zM494 357v-293c0 -3 0 -6 -1 -8s-2 -4 -4 -5s-4 -2 -5 -3s-4 -2 -7 -2h-6h-7h-7c0 -20 -7 -38 -21 -52s-32 -21 -52 -21s-38 7 -52 21s-21 32 -21 52h-110c0 -20 -7 -38 -21 -52s-32 -21 -52 -21
s-38 7 -52 21s-21 32 -21 52h-18h-7h-7h-7s-5 1 -6 2s-3 2 -5 3s-3 3 -4 5s-1 5 -1 8c0 5 1 9 5 13s8 5 13 5v92v10v11s1 5 1 9s1 8 2 11s2 6 4 9s4 6 6 8l57 57c4 4 8 7 14 9s12 4 17 4h46v55c0 5 1 8 5 12s8 6 13 6h292c5 0 9 -2 13 -6s6 -7 6 -12v0z" />
    <glyph glyph-name="uniF1F4" unicode="&#xf1f4;" 
d="M366 107c0 2 -1 4 -1 5c-1 2 -4 4 -11 8s-15 9 -25 14l-15 9c-1 1 -3 1 -6 3s-5 4 -7 5s-4 1 -6 1c-3 0 -7 -3 -13 -9s-12 -13 -17 -19s-9 -9 -12 -9c-1 0 -3 0 -5 1s-3 0 -4 1s-3 2 -5 3s-3 3 -4 3c-19 10 -35 22 -49 36s-26 29 -36 48c0 1 -1 2 -2 4s-2 4 -3 5
s-1 3 -2 5s-1 3 -1 4c0 2 2 6 6 10s8 8 13 11s9 7 13 11s5 8 5 11c0 2 0 4 -1 6s-2 4 -4 7s-3 4 -4 5s-2 4 -4 8s-5 9 -7 13s-5 9 -8 14s-5 9 -7 12s-4 5 -5 5h-4c-9 0 -19 -2 -29 -6c-9 -4 -17 -13 -23 -27s-10 -26 -10 -37c0 -3 1 -7 1 -10s1 -7 1 -9s2 -5 3 -9s2 -7 3 -9
s1 -4 3 -9s3 -8 3 -9c11 -31 32 -61 62 -91s61 -51 92 -62c1 0 3 -1 8 -3s8 -3 10 -4s4 -2 8 -3s8 -2 10 -2s5 -2 8 -2h10c11 0 23 3 37 9s23 14 27 23c4 10 7 20 7 29v0zM439 329v-274c0 -23 -8 -42 -24 -58s-35 -24 -58 -24h-275c-23 0 -42 8 -58 24s-24 35 -24 58v274
c0 23 8 42 24 58s35 24 58 24h275c23 0 42 -8 58 -24s24 -35 24 -58z" />
    <glyph glyph-name="uniF186" unicode="&#xf186;" horiz-adv-x="512" 
d="M475 174c-29 45 -64 79 -108 101c12 -20 17 -42 17 -65c0 -35 -13 -65 -38 -90s-55 -38 -90 -38s-65 13 -90 38s-38 55 -38 90c0 23 5 45 17 65c-44 -22 -79 -56 -108 -101c25 -39 57 -71 95 -94s79 -34 124 -34s86 11 124 34s70 55 95 94v0zM270 283c0 4 -1 7 -4 10
s-6 4 -10 4c-24 0 -44 -8 -61 -25s-26 -38 -26 -62c0 -4 1 -6 4 -9s6 -4 10 -4s7 1 10 4s4 5 4 9c0 16 5 30 17 42s26 18 42 18c4 0 7 1 10 4s4 5 4 9zM512 174c0 -6 -2 -13 -6 -20c-27 -44 -62 -79 -107 -105s-93 -40 -143 -40s-98 14 -143 40s-80 61 -107 105
c-4 7 -6 14 -6 20s2 12 6 19c27 44 62 80 107 106s93 39 143 39s98 -13 143 -39s80 -62 107 -106c4 -7 6 -13 6 -19z" />
    <glyph glyph-name="uniF23B" unicode="&#xf23b;" horiz-adv-x="488" 
d="M408 192c0 22 -4 44 -13 64s-20 37 -35 52s-32 27 -52 36s-42 13 -64 13s-44 -4 -64 -13s-38 -21 -53 -36s-26 -32 -35 -52s-13 -42 -13 -64s4 -44 13 -64s20 -37 35 -52s33 -27 53 -36s42 -13 64 -13s44 4 64 13s37 21 52 36s26 32 35 52s13 42 13 64zM487 113
c-1 -3 -2 -5 -5 -6l-84 -27v-88c0 -3 -2 -5 -4 -7c-3 -2 -5 -2 -8 -1l-83 27l-52 -71c-2 -2 -4 -4 -7 -4s-6 2 -8 4l-51 71l-83 -27c-3 -1 -6 -1 -9 1c-2 2 -3 4 -3 7v88l-84 27c-3 1 -4 3 -5 6s-1 6 1 8l51 71l-51 71c-2 2 -2 5 -1 8s2 5 5 6l84 27v88c0 3 1 5 3 7
c3 2 6 2 9 1l83 -27l51 71c2 2 5 4 8 4s5 -2 7 -4l52 -71l83 27c3 1 5 1 8 -1c2 -2 4 -4 4 -7v-88l84 -27c3 -1 4 -3 5 -6s1 -6 -1 -8l-51 -71l51 -71c2 -2 2 -5 1 -8z" />
    <glyph glyph-name="uniF19D" unicode="&#xf19d;" horiz-adv-x="475" 
d="M439 73v201c0 8 -3 15 -8 20s-12 8 -20 8h-201c-8 0 -14 3 -19 8s-8 11 -8 19v18c0 8 -3 15 -8 20s-12 8 -20 8h-91c-8 0 -14 -3 -19 -8s-8 -12 -8 -20v-274c0 -8 3 -14 8 -19s11 -8 19 -8h347c8 0 15 3 20 8s8 11 8 19v0zM475 274v-201c0 -18 -5 -32 -18 -45
s-28 -19 -46 -19h-347c-18 0 -32 6 -45 19s-19 27 -19 45v274c0 18 6 33 19 46s27 18 45 18h91c18 0 33 -5 46 -18s18 -28 18 -46v-9h192c18 0 33 -6 46 -19s18 -27 18 -45v0z" />
    <glyph glyph-name="uniF131" unicode="&#xf131;" 
d="M439 64v-37c0 -5 -2 -8 -6 -12s-7 -6 -12 -6h-403c-5 0 -9 2 -13 6s-5 7 -5 12v37c0 5 1 9 5 13s8 5 13 5h403c5 0 8 -1 12 -5s6 -8 6 -13zM439 210v-36c0 -5 -2 -9 -6 -13s-7 -6 -12 -6h-403c-5 0 -9 2 -13 6s-5 8 -5 13v36c0 5 1 9 5 13s8 6 13 6h403c5 0 8 -2 12 -6
s6 -8 6 -13zM439 357v-37c0 -5 -2 -9 -6 -13s-7 -5 -12 -5h-403c-5 0 -9 1 -13 5s-5 8 -5 13v37c0 5 1 8 5 12s8 6 13 6h403c5 0 8 -2 12 -6s6 -7 6 -12z" />
    <glyph glyph-name="uniF272" unicode="&#xf272;" horiz-adv-x="512" 
d="M147 107l23 85h-45l21 -86v-1h1v1v1zM180 229l10 36h-83l9 -36h64zM235 229h40l-10 36h-20zM363 106l22 86h-46l23 -85v-1l1 -1v0v1zM395 229l9 36h-85l10 -36h66v0zM512 219v-18c0 -3 -1 -4 -3 -6s-3 -3 -6 -3h-61l-47 -176c-1 -5 -4 -7 -9 -7h-45c-5 0 -8 2 -9 7
l-47 176h-60l-48 -176c-1 -5 -4 -7 -9 -7h-45c-2 0 -4 1 -6 2s-3 3 -3 5l-45 176h-60c-3 0 -4 1 -6 3s-3 3 -3 6v18c0 3 1 5 3 7s3 3 6 3h50l-9 36h-41c-3 0 -4 1 -6 3s-3 3 -3 6v19c0 3 1 4 3 6s3 3 6 3h31l-25 98c-1 3 -1 6 1 8s5 3 8 3h39c5 0 8 -1 9 -6l25 -103h103
l28 103c1 5 4 6 9 6h36c5 0 7 -1 8 -6l28 -103h105l26 103c1 5 4 6 9 6h39c3 0 6 -1 8 -3s2 -5 1 -8l-26 -98h32c3 0 4 -1 6 -3s3 -3 3 -6v-19c0 -3 -1 -4 -3 -6s-3 -3 -6 -3h-42l-9 -36h51c3 0 4 -1 6 -3s3 -4 3 -7v0z" />
    <glyph glyph-name="uniF1A3" unicode="&#xf1a3;" 
d="M324 97c2 -5 1 -10 -1 -14s-6 -7 -11 -9s-9 -1 -14 1s-7 6 -9 11c-5 15 -13 28 -26 37s-28 14 -44 14s-30 -5 -43 -14s-21 -22 -26 -37c-2 -5 -5 -9 -9 -11s-9 -3 -14 -1s-9 5 -11 9s-3 9 -1 14c7 23 20 42 39 56s41 21 65 21s47 -7 66 -21s32 -33 39 -56v0zM183 265
c0 -10 -4 -19 -11 -26s-16 -10 -26 -10s-19 3 -26 10s-10 16 -10 26s3 19 10 26s16 11 26 11s19 -4 26 -11s11 -16 11 -26zM329 265c0 -10 -4 -19 -11 -26s-15 -10 -25 -10s-19 3 -26 10s-11 16 -11 26s4 19 11 26s16 11 26 11s18 -4 25 -11s11 -16 11 -26zM402 192
c0 25 -4 48 -14 71s-23 42 -39 58s-36 29 -59 39s-46 15 -71 15s-48 -5 -71 -15s-42 -23 -58 -39s-29 -35 -39 -58s-14 -46 -14 -71s4 -48 14 -71s23 -42 39 -58s35 -29 58 -39s46 -15 71 -15s48 5 71 15s43 23 59 39s29 35 39 58s14 46 14 71zM439 192
c0 -40 -10 -76 -30 -110s-45 -60 -79 -80s-71 -29 -111 -29s-76 9 -110 29s-60 46 -80 80s-29 70 -29 110s9 76 29 110s46 60 80 80s70 29 110 29s77 -9 111 -29s59 -46 79 -80s30 -70 30 -110z" />
    <glyph glyph-name="uniF121" unicode="&#xf121;" 
d="M319 198c-2 -4 -4 -6 -8 -6h-55v-101c0 -3 -1 -4 -3 -6s-3 -3 -6 -3h-55c-3 0 -5 1 -7 3s-2 3 -2 6v101h-55c-3 0 -5 1 -7 3s-2 3 -2 6c0 2 1 5 3 7l91 91c2 2 4 3 6 3s5 -1 7 -3l91 -91c3 -3 4 -6 2 -10v0zM219 347c-28 0 -54 -6 -78 -20s-42 -33 -56 -57
s-21 -50 -21 -78s7 -54 21 -78s32 -43 56 -57s50 -20 78 -20s54 6 78 20s43 33 57 57s21 50 21 78s-7 54 -21 78s-33 43 -57 57s-50 20 -78 20zM439 192c0 -40 -10 -76 -30 -110s-45 -60 -79 -80s-71 -29 -111 -29s-76 9 -110 29s-60 46 -80 80s-29 70 -29 110s9 76 29 110
s46 60 80 80s70 29 110 29s77 -9 111 -29s59 -46 79 -80s30 -70 30 -110z" />
    <glyph glyph-name="uniF237" unicode="&#xf237;" 
d="M439 393v-402c0 -5 -2 -9 -6 -13s-7 -5 -12 -5h-403c-5 0 -9 1 -13 5s-5 8 -5 13v402c0 5 1 9 5 13s8 5 13 5h403c5 0 8 -1 12 -5s6 -8 6 -13z" />
    <glyph glyph-name="uniF1E2" unicode="&#xf1e2;" 
d="M329 137c0 -5 -1 -9 -5 -13s-8 -5 -13 -5h-183c-5 0 -9 1 -13 5s-5 8 -5 13s1 9 5 13s8 5 13 5h183c5 0 9 -1 13 -5s5 -8 5 -13zM183 265c0 -10 -4 -19 -11 -26s-16 -10 -26 -10s-19 3 -26 10s-10 16 -10 26s3 19 10 26s16 11 26 11s19 -4 26 -11s11 -16 11 -26zM329 265
c0 -10 -4 -19 -11 -26s-15 -10 -25 -10s-19 3 -26 10s-11 16 -11 26s4 19 11 26s16 11 26 11s18 -4 25 -11s11 -16 11 -26zM402 192c0 25 -4 48 -14 71s-23 42 -39 58s-36 29 -59 39s-46 15 -71 15s-48 -5 -71 -15s-42 -23 -58 -39s-29 -35 -39 -58s-14 -46 -14 -71
s4 -48 14 -71s23 -42 39 -58s35 -29 58 -39s46 -15 71 -15s48 5 71 15s43 23 59 39s29 35 39 58s14 46 14 71zM439 192c0 -40 -10 -76 -30 -110s-45 -60 -79 -80s-71 -29 -111 -29s-76 9 -110 29s-60 46 -80 80s-29 70 -29 110s9 76 29 110s46 60 80 80s70 29 110 29
s77 -9 111 -29s59 -46 79 -80s30 -70 30 -110z" />
    <glyph glyph-name="uniF1DD" unicode="&#xf1dd;" horiz-adv-x="512" 
d="M512 128c0 -32 -12 -75 -36 -129c-1 -1 -2 -4 -3 -7s-3 -6 -4 -8s-3 -5 -4 -7c-2 -3 -5 -4 -8 -4s-5 0 -7 2s-2 5 -2 8c0 2 1 4 1 7v7c1 13 2 25 2 35c0 19 -2 37 -5 52s-8 28 -14 39s-14 21 -23 29s-19 15 -30 20s-23 9 -38 12s-29 5 -44 6s-31 2 -50 2h-64v-73
c0 -5 -2 -9 -6 -13s-7 -5 -12 -5s-9 1 -13 5l-147 146c-4 4 -5 8 -5 13s1 9 5 13l147 146c4 4 8 6 13 6s8 -2 12 -6s6 -8 6 -13v-73h64c136 0 219 -38 250 -115c10 -26 15 -57 15 -95v0z" />
    <glyph glyph-name="uniF146" unicode="&#xf146;" horiz-adv-x="165" 
d="M165 320v-256c0 -5 -2 -9 -6 -13s-8 -5 -13 -5s-9 1 -13 5l-128 128c-4 4 -5 8 -5 13s1 9 5 13l128 128c4 4 8 5 13 5s9 -1 13 -5s6 -8 6 -13z" />
    <glyph glyph-name="uniF204" unicode="&#xf204;" horiz-adv-x="264" 
d="M174 89v-68c0 -3 -2 -6 -4 -8s-5 -4 -8 -4h-68c-3 0 -6 2 -8 4s-4 5 -4 8v68c0 3 2 6 4 8s5 4 8 4h68c3 0 6 -2 8 -4s4 -5 4 -8zM264 261c0 -10 -1 -20 -4 -29s-6 -16 -10 -22s-9 -11 -16 -17s-13 -10 -17 -13s-10 -6 -17 -10c-8 -4 -15 -10 -20 -18s-7 -14 -7 -19
c0 -3 -2 -7 -4 -10s-5 -4 -8 -4h-68c-3 0 -6 1 -8 5s-3 7 -3 11v13c0 16 7 30 19 44s26 24 41 31c11 5 19 10 24 16s7 13 7 22c0 8 -4 15 -13 21s-19 9 -31 9s-23 -2 -31 -8c-7 -5 -17 -16 -31 -33c-2 -3 -5 -4 -8 -4c-2 0 -6 0 -8 2l-46 36c-2 2 -5 4 -5 7s0 6 2 8
c30 51 74 76 132 76c15 0 31 -3 46 -9s30 -14 42 -24s22 -22 30 -36s12 -29 12 -45v0z" />
    <glyph glyph-name="uniF245" unicode="&#xf245;" horiz-adv-x="512" 
d="M146 91v-54c0 -8 -3 -15 -8 -20s-11 -8 -19 -8h-92c-8 0 -14 3 -19 8s-8 12 -8 20v54c0 8 3 15 8 20s11 8 19 8h92c8 0 14 -3 19 -8s8 -12 8 -20zM146 238v-55c0 -8 -3 -15 -8 -20s-11 -8 -19 -8h-92c-8 0 -14 3 -19 8s-8 12 -8 20v55c0 8 3 14 8 19s11 8 19 8h92
c8 0 14 -3 19 -8s8 -11 8 -19zM329 91v-54c0 -8 -3 -15 -8 -20s-11 -8 -19 -8h-92c-8 0 -14 3 -19 8s-8 12 -8 20v54c0 8 3 15 8 20s11 8 19 8h92c8 0 14 -3 19 -8s8 -12 8 -20zM146 384v-55c0 -8 -3 -14 -8 -19s-11 -8 -19 -8h-92c-8 0 -14 3 -19 8s-8 11 -8 19v55
c0 8 3 14 8 19s11 8 19 8h92c8 0 14 -3 19 -8s8 -11 8 -19zM329 238v-55c0 -8 -3 -15 -8 -20s-11 -8 -19 -8h-92c-8 0 -14 3 -19 8s-8 12 -8 20v55c0 8 3 14 8 19s11 8 19 8h92c8 0 14 -3 19 -8s8 -11 8 -19zM512 91v-54c0 -8 -3 -15 -8 -20s-11 -8 -19 -8h-92
c-8 0 -14 3 -19 8s-8 12 -8 20v54c0 8 3 15 8 20s11 8 19 8h92c8 0 14 -3 19 -8s8 -12 8 -20zM329 384v-55c0 -8 -3 -14 -8 -19s-11 -8 -19 -8h-92c-8 0 -14 3 -19 8s-8 11 -8 19v55c0 8 3 14 8 19s11 8 19 8h92c8 0 14 -3 19 -8s8 -11 8 -19zM512 238v-55
c0 -8 -3 -15 -8 -20s-11 -8 -19 -8h-92c-8 0 -14 3 -19 8s-8 12 -8 20v55c0 8 3 14 8 19s11 8 19 8h92c8 0 14 -3 19 -8s8 -11 8 -19zM512 384v-55c0 -8 -3 -14 -8 -19s-11 -8 -19 -8h-92c-8 0 -14 3 -19 8s-8 11 -8 19v55c0 8 3 14 8 19s11 8 19 8h92c8 0 14 -3 19 -8
s8 -11 8 -19z" />
    <glyph glyph-name="uniF1E3" unicode="&#xf1e3;" horiz-adv-x="329" 
d="M329 247v-37c0 -42 -14 -79 -42 -110s-63 -48 -104 -53v-38h73c5 0 9 -1 13 -5s5 -8 5 -13s-1 -9 -5 -13s-8 -5 -13 -5h-183c-5 0 -9 1 -13 5s-5 8 -5 13s1 9 5 13s8 5 13 5h73v38c-41 5 -76 22 -104 53s-42 68 -42 110v37c0 5 1 9 5 13s8 5 13 5s9 -1 13 -5s6 -8 6 -13
v-37c0 -35 12 -65 37 -90s56 -38 91 -38s65 13 90 38s38 55 38 90v37c0 5 1 9 5 13s8 5 13 5s9 -1 13 -5s5 -8 5 -13v0zM256 357v-147c0 -25 -9 -46 -27 -64s-39 -27 -64 -27s-47 9 -65 27s-27 39 -27 64v147c0 25 9 46 27 64s40 27 65 27s46 -9 64 -27s27 -39 27 -64z" />
    <glyph glyph-name="uniF1F0" unicode="&#xf1f0;" 
d="M439 393v-402c0 -5 -2 -9 -6 -13s-7 -5 -12 -5h-147c-5 0 -9 1 -13 5s-5 8 -5 13v402c0 5 1 9 5 13s8 5 13 5h147c5 0 8 -1 12 -5s6 -8 6 -13zM183 393v-402c0 -5 -2 -9 -6 -13s-7 -5 -12 -5h-147c-5 0 -9 1 -13 5s-5 8 -5 13v402c0 5 1 9 5 13s8 5 13 5h147
c5 0 8 -1 12 -5s6 -8 6 -13z" />
    <glyph glyph-name="uniF188" unicode="&#xf188;" horiz-adv-x="219" 
d="M146 289h73l-8 -81h-65v-235h-97v235h-49v81h49v49c0 35 8 61 24 79s43 26 81 26h65v-81h-41c-7 0 -14 -1 -18 -2s-7 -3 -9 -6s-3 -7 -4 -10s-1 -8 -1 -14v-41v0z" />
    <glyph glyph-name="uniF16F" unicode="&#xf16f;" horiz-adv-x="402" 
d="M183 430v-183c0 -12 -3 -22 -10 -32s-16 -16 -27 -20v-222c0 -10 -4 -19 -11 -26s-15 -11 -25 -11h-37c-10 0 -19 4 -26 11s-10 16 -10 26v222c-11 4 -20 10 -27 20s-10 20 -10 32v183c0 5 1 9 5 13s8 5 13 5s9 -1 13 -5s6 -8 6 -13v-119c0 -5 1 -9 5 -13s8 -5 13 -5
s9 1 13 5s5 8 5 13v119c0 5 2 9 6 13s7 5 12 5s9 -1 13 -5s6 -8 6 -13v-119c0 -5 1 -9 5 -13s8 -5 13 -5s9 1 13 5s5 8 5 13v119c0 5 2 9 6 13s8 5 13 5s8 -1 12 -5s6 -8 6 -13zM402 430v-457c0 -10 -4 -19 -11 -26s-15 -11 -25 -11h-37c-10 0 -19 4 -26 11s-10 16 -10 26
v146h-64c-2 0 -5 1 -7 3s-3 4 -3 6v229c0 25 9 46 27 64s40 27 65 27h73c5 0 9 -1 13 -5s5 -8 5 -13v0z" />
    <glyph glyph-name="uniF1CF" unicode="&#xf1cf;" horiz-adv-x="435" 
d="M187 331c-2 0 -3 -1 -4 -3s-2 -3 -3 -3s-1 0 -1 1c0 2 1 4 5 5h3v0zM212 327c-1 0 -2 0 -3 1s-3 3 -5 2c5 2 7 1 9 -1c1 -1 0 -1 -1 -2v0zM112 205c-1 0 -2 0 -2 -1s-1 -2 -1 -4s-1 -3 -2 -4s-1 -1 -2 -3s-2 -4 -1 -4s2 0 4 2s2 3 3 5c0 1 1 1 1 2s1 2 1 2v1v1v1v1z
M356 102c0 3 -5 7 -15 12c1 3 1 6 2 8s1 4 1 7s1 4 1 6v7v5s0 4 -1 7s-1 5 -1 6s-1 3 -2 7s-1 6 -1 7c-2 9 -7 20 -14 30s-13 17 -20 21c5 -4 10 -12 16 -24c17 -31 21 -57 15 -79c-2 -8 -7 -12 -14 -12c-6 -1 -10 1 -11 5s-2 12 -2 24s-1 22 -3 31c-2 7 -4 13 -6 19
s-4 10 -6 13s-3 5 -4 7s-3 4 -4 5l-2 2c-3 12 -6 21 -9 29s-6 13 -8 16s-5 7 -7 10s-3 7 -4 11s-1 9 1 15s3 11 2 14s-6 6 -13 8c-3 1 -7 2 -13 5s-9 4 -10 4c-2 0 -2 3 -3 8s0 9 2 14s6 8 11 8c7 1 11 -3 14 -9s3 -11 1 -16c-2 -4 -2 -7 0 -8s4 -1 8 0c2 1 4 4 4 10v11
c-1 6 -2 10 -4 14s-4 7 -6 9s-5 3 -7 4s-4 1 -7 2c-20 -2 -29 -14 -26 -38v-4c-2 2 -4 3 -8 3h-10s-3 0 -4 1c0 11 -2 20 -5 26s-8 10 -13 10s-9 -3 -12 -8s-4 -11 -4 -17c0 -3 0 -7 1 -11s1 -8 3 -11s4 -3 5 -3c2 1 3 2 4 4s0 2 -2 2c-1 0 -2 1 -4 4s-3 6 -3 10s1 7 3 10
s5 4 10 4c3 0 5 -2 7 -6s3 -8 3 -11v-6c-4 -3 -7 -6 -9 -9c-2 -2 -4 -4 -8 -6s-6 -4 -6 -4c-2 -3 -4 -6 -4 -8s0 -4 2 -5c3 -2 5 -3 7 -5s3 -5 4 -6s3 -2 6 -3s6 -2 10 -2c9 0 19 1 29 4c0 0 3 1 7 2s6 2 9 3s6 2 9 4s5 3 6 5c2 3 4 3 6 2c1 -1 1 -1 1 -2s1 -3 0 -4
s-3 -2 -5 -3c-4 -1 -9 -3 -16 -6s-11 -4 -13 -5c-8 -4 -15 -6 -20 -7s-13 0 -23 1c-2 0 -2 0 -2 -1s1 -2 4 -5c5 -4 12 -7 20 -7c3 0 6 1 10 2s7 2 10 4s7 3 10 5s5 4 8 5s5 3 7 4s4 0 5 0s3 -1 3 -3l-1 -1s0 -1 -1 -1s0 -2 -1 -2s-2 0 -3 -1s-1 -1 -2 -1s-2 -1 -3 -2
s-2 -1 -3 -1c-5 -3 -11 -7 -19 -13s-14 -10 -19 -12s-10 -2 -14 0s-10 9 -18 21c-4 6 -6 8 -7 6c0 -1 -1 -2 -1 -3c0 -5 -1 -10 -4 -16s-5 -11 -8 -16s-5 -11 -6 -17s0 -12 3 -18c-4 -1 -10 -9 -18 -25s-12 -30 -14 -41v-19s-1 -15 -2 -17c-2 -5 -4 -5 -8 -1
c-6 6 -9 15 -10 27c0 5 0 11 1 16c1 4 1 5 0 5l-1 -1c-7 -12 -7 -29 2 -48c1 -2 4 -5 8 -8s5 -5 6 -6c4 -4 14 -12 30 -25s25 -20 27 -22c3 -3 5 -7 5 -11s-1 -8 -4 -12s-7 -6 -13 -7c2 -3 4 -7 8 -13s7 -10 8 -15s2 -11 2 -20c9 5 9 13 2 26c-1 2 -2 3 -3 5s-2 2 -3 3
s0 2 0 2c1 1 1 1 3 2s4 1 6 0c9 -10 25 -14 48 -11c25 3 42 11 50 25c4 7 8 11 10 9c2 -1 3 -6 3 -15c0 -5 -3 -13 -7 -26c-2 -4 -3 -8 -2 -11s3 -4 7 -4c1 4 2 11 4 22s4 19 4 25c0 4 0 11 -2 21s-2 20 -2 28s3 15 7 20c3 3 7 5 14 5c0 7 4 12 10 15s14 4 21 3s13 -3 17 -6
v0zM177 338c1 3 0 7 -1 9s-2 4 -3 4c-2 0 -3 0 -3 -2c0 -1 1 -2 2 -2c2 0 3 -1 2 -4c-1 -4 0 -6 2 -6c1 0 1 0 1 1v0zM297 282c0 2 -1 2 -2 3s-2 2 -4 2s-3 0 -4 1l-3 3s-2 1 -2 2s0 1 -1 2s-2 1 -2 1s0 -1 -1 -1c-3 -3 -2 -7 2 -12s8 -8 11 -9c2 0 4 0 5 2s1 4 1 6v0z
M246 343c0 2 -1 3 -2 5s-2 3 -3 4s-1 1 -2 1c-3 0 -3 -1 -2 -2l1 -1c3 -1 4 -4 5 -9c0 -1 0 0 2 1zM261 409c0 0 -1 1 -1 2s-1 1 -2 2s-2 2 -3 2c-3 3 -5 4 -7 4s-3 -1 -3 -2v-4s-1 -3 -1 -4s0 -2 -1 -3l-2 -2s0 -2 1 -3s1 -1 2 0l3 3s3 2 5 3h2h4s3 1 3 2zM423 26
c4 -2 6 -5 8 -7s4 -5 4 -7s0 -4 -1 -6s-2 -4 -4 -6s-5 -4 -7 -6s-5 -3 -9 -5s-7 -4 -9 -5s-5 -2 -9 -4l-8 -4c-7 -4 -15 -9 -24 -16s-17 -13 -22 -18c-3 -3 -9 -5 -19 -6s-18 1 -25 4c-3 2 -7 4 -9 7s-4 5 -5 7s-3 4 -6 6s-7 3 -13 3h-37c-4 0 -10 -1 -17 -1h-16
c-8 0 -16 -2 -23 -5s-12 -5 -15 -8s-8 -6 -13 -8s-10 -4 -15 -4c-6 0 -16 3 -32 9s-29 11 -41 13c-4 1 -9 1 -15 2s-11 2 -14 3s-8 2 -12 3s-7 2 -9 4s-4 3 -5 5c-2 4 -1 11 2 19s5 14 5 16c0 3 0 6 -1 11s-2 8 -3 12s-1 8 -1 11s1 6 3 8c3 2 8 4 16 4s14 1 17 3
c6 3 10 7 12 10s4 9 4 15c4 -14 1 -25 -9 -31c-6 -4 -14 -5 -24 -4c-6 1 -10 -1 -12 -3c-2 -3 -2 -8 1 -16c0 -1 1 -3 2 -5s3 -4 3 -5s1 -3 1 -5v-7c0 -3 -2 -8 -5 -14s-5 -10 -4 -13s5 -6 11 -8c4 -1 12 -3 24 -5s22 -4 29 -6c5 -1 11 -3 21 -6s17 -6 23 -7s12 -2 16 -1
c8 1 15 4 19 8s6 9 6 14s0 11 -2 17s-3 10 -5 14s-4 8 -6 11c-23 36 -39 59 -48 69c-13 14 -24 17 -33 11c-2 -2 -3 0 -4 5c-1 3 -1 7 -1 11c0 6 1 10 3 14s4 9 7 14s6 9 7 12c2 4 3 10 7 20s7 18 9 23s4 11 8 17s7 12 11 16c21 27 33 45 36 55c-2 21 -4 51 -5 89
c0 17 2 31 7 43s15 22 30 30c7 4 18 6 30 6c10 0 20 -1 30 -4s19 -7 26 -12c11 -8 19 -19 26 -34s9 -30 8 -43c-1 -18 2 -38 9 -61c6 -22 19 -42 38 -62c10 -11 20 -27 28 -47s14 -37 17 -54c2 -9 3 -17 2 -24s-2 -12 -4 -16s-3 -6 -5 -6s-4 -3 -7 -6s-5 -6 -8 -10
s-6 -7 -11 -10s-12 -4 -18 -4c-3 0 -6 1 -9 2s-4 2 -6 4l-4 4s-2 3 -3 6s-3 5 -3 6c-4 7 -8 9 -12 8s-6 -6 -8 -14s-1 -18 2 -28c4 -13 5 -31 1 -55c-2 -12 0 -22 5 -29s12 -9 21 -9s16 4 24 10c11 9 19 16 25 19s16 7 30 12c10 3 17 6 22 10s6 7 5 10s-3 6 -7 8s-9 5 -15 7
s-11 7 -14 14s-4 13 -4 20s1 12 4 14c0 -6 2 -11 3 -16s3 -9 4 -12s4 -5 6 -8s4 -4 6 -5s3 -3 6 -4s4 -3 5 -3v0z" />
    <glyph glyph-name="uniF11D" unicode="&#xf11d;" 
d="M366 174v36c0 5 -2 9 -6 13s-8 6 -13 6h-143l54 54c4 4 5 7 5 12s-1 9 -5 13l-26 26c-3 3 -8 5 -13 5s-10 -2 -13 -5l-129 -129c-3 -3 -5 -8 -5 -13s2 -10 5 -13l129 -129c3 -3 8 -5 13 -5s10 2 13 5l26 26c3 3 5 8 5 13s-2 9 -5 12l-54 54h143c5 0 9 2 13 6s6 8 6 13v0z
M439 192c0 -40 -10 -76 -30 -110s-45 -60 -79 -80s-71 -29 -111 -29s-76 9 -110 29s-60 46 -80 80s-29 70 -29 110s9 76 29 110s46 60 80 80s70 29 110 29s77 -9 111 -29s59 -46 79 -80s30 -70 30 -110z" />
    <glyph glyph-name="uniF21C" unicode="&#xf21c;" horiz-adv-x="475" 
d="M183 9c0 -10 -4 -19 -11 -26s-16 -10 -26 -10s-19 3 -26 10s-10 16 -10 26s3 19 10 26s16 11 26 11s19 -4 26 -11s11 -16 11 -26zM439 9c0 -10 -4 -19 -11 -26s-16 -10 -26 -10s-19 3 -26 10s-10 16 -10 26s3 19 10 26s16 11 26 11s19 -4 26 -11s11 -16 11 -26zM475 320
v-146c0 -5 -1 -8 -4 -12s-7 -6 -12 -7l-298 -34c0 -1 0 -4 1 -7s2 -5 2 -7s1 -4 1 -6c0 -3 -2 -10 -7 -19h263c5 0 8 -1 12 -5s6 -8 6 -13s-2 -9 -6 -13s-7 -5 -12 -5h-293c-5 0 -9 1 -13 5s-5 8 -5 13c0 3 1 6 3 11s4 11 8 17s6 10 6 11l-50 235h-59c-5 0 -9 2 -13 6
s-5 8 -5 13s1 8 5 12s8 6 13 6h73c3 0 7 -1 9 -2s4 -2 5 -4s3 -4 4 -7s2 -6 2 -8s1 -4 2 -8s1 -7 1 -8h343c5 0 9 -1 13 -5s5 -8 5 -13v0z" />
    <glyph glyph-name="uniF277" unicode="&#xf277;" horiz-adv-x="512" 
d="M366 192c0 7 -3 12 -9 15l-146 92c-6 4 -13 3 -19 0s-9 -9 -9 -16v-182c0 -7 3 -13 9 -16c3 -2 6 -3 9 -3c4 0 7 1 10 3l146 92c6 3 9 8 9 15v0zM512 192v-43s-2 -23 -3 -39s-3 -30 -6 -42c-3 -14 -10 -25 -20 -35s-21 -15 -35 -17c-42 -5 -106 -7 -192 -7s-150 2 -192 7
c-14 2 -25 7 -35 17s-17 21 -20 35c-3 12 -5 26 -6 42s-3 29 -3 39v43v43s2 23 3 39s3 30 6 42c3 14 10 25 20 35s21 15 35 17c42 5 106 7 192 7s150 -2 192 -7c14 -2 25 -7 35 -17s17 -21 20 -35c3 -12 5 -26 6 -42s3 -29 3 -39v-43z" />
    <glyph glyph-name="uniF180" unicode="&#xf180;" horiz-adv-x="512" 
d="M512 110v-55c0 -2 -1 -5 -3 -7s-4 -2 -6 -2h-393v-55c0 -2 -1 -5 -3 -7s-4 -2 -6 -2s-5 1 -7 3l-91 91c-2 2 -3 4 -3 6c0 3 1 5 3 7l91 91c2 2 4 3 7 3c2 0 4 -1 6 -3s3 -4 3 -6v-55h393c2 0 4 -1 6 -3s3 -4 3 -6v0zM512 265c0 -3 -1 -4 -3 -6l-91 -92c-2 -2 -4 -2 -7 -2
c-2 0 -4 0 -6 2s-3 5 -3 7v55h-393c-2 0 -4 0 -6 2s-3 5 -3 7v55c0 2 1 4 3 6s4 3 6 3h393v55c0 3 1 4 3 6s3 3 6 3c2 0 5 -1 7 -3l91 -91c2 -2 3 -4 3 -7v0z" />
    <glyph glyph-name="uniF115" unicode="&#xf115;" horiz-adv-x="285" 
d="M285 73c0 -2 -1 -4 -3 -6l-14 -15c-2 -2 -5 -3 -7 -3s-4 1 -6 3l-112 113l-113 -113c-2 -2 -4 -3 -6 -3s-5 1 -7 3l-14 15c-2 2 -3 4 -3 6s1 5 3 7l133 133c2 2 5 3 7 3s4 -1 6 -3l133 -133c2 -2 3 -5 3 -7v0zM285 183c0 -2 -1 -5 -3 -7l-14 -14c-2 -2 -5 -3 -7 -3
s-4 1 -6 3l-112 112l-113 -112c-2 -2 -4 -3 -6 -3s-5 1 -7 3l-14 14c-2 2 -3 5 -3 7s1 4 3 6l133 134c2 2 5 2 7 2s4 0 6 -2l133 -134c2 -2 3 -4 3 -6v0z" />
    <glyph glyph-name="uniF1A1" unicode="&#xf1a1;" horiz-adv-x="441" 
d="M13 -24c-4 -4 -7 -4 -9 -3s-4 4 -4 9v420c0 5 2 8 4 9s5 1 9 -3l203 -203c2 -2 2 -4 3 -6v203c0 5 2 8 4 9s5 1 9 -3l203 -203c4 -4 6 -8 6 -13s-2 -9 -6 -13l-203 -203c-4 -4 -7 -4 -9 -3s-4 4 -4 9v203c-1 -2 -1 -4 -3 -6z" />
    <glyph glyph-name="uniF11C" unicode="&#xf11c;" 
d="M367 192c0 5 -2 10 -5 13l-26 26c-3 3 -8 5 -13 5s-10 -2 -13 -5l-54 -54v143c0 5 -1 9 -5 13s-8 5 -13 5h-37c-5 0 -9 -1 -13 -5s-5 -8 -5 -13v-143l-54 54c-4 4 -8 5 -13 5s-9 -1 -13 -5l-26 -26c-3 -3 -5 -8 -5 -13s2 -10 5 -13l130 -130c3 -3 7 -5 12 -5s10 2 13 5
l130 130c3 3 5 8 5 13v0zM439 192c0 -40 -10 -76 -30 -110s-45 -60 -79 -80s-71 -29 -111 -29s-76 9 -110 29s-60 46 -80 80s-29 70 -29 110s9 76 29 110s46 60 80 80s70 29 110 29s77 -9 111 -29s59 -46 79 -80s30 -70 30 -110z" />
    <glyph glyph-name="uniF25B" unicode="&#xf25b;" 
d="M321 45v52c-17 -11 -34 -16 -50 -16c-10 0 -18 3 -25 7c-6 3 -9 8 -11 13c-2 6 -3 17 -3 36v85h78v51h-78v84h-47c-2 -17 -6 -31 -12 -42s-13 -21 -22 -29s-20 -14 -33 -18v-46h36v-116c0 -15 2 -26 5 -34s9 -16 17 -23s18 -12 30 -16s25 -6 40 -6c13 0 25 1 37 4
c11 2 23 7 38 14v0zM439 329v-274c0 -23 -8 -42 -24 -58s-35 -24 -58 -24h-275c-23 0 -42 8 -58 24s-24 35 -24 58v274c0 23 8 42 24 58s35 24 58 24h275c23 0 42 -8 58 -24s24 -35 24 -58z" />
    <glyph glyph-name="uniF1BF" unicode="&#xf1bf;" horiz-adv-x="512" 
d="M101 210c0 -3 -1 -4 -3 -6l-82 -83c-2 -2 -4 -2 -7 -2c-2 0 -4 1 -6 3s-3 4 -3 6v165c0 2 1 4 3 6s4 3 6 3c3 0 5 -1 7 -3l82 -82c2 -2 3 -4 3 -7zM512 73v-55c0 -2 -1 -4 -3 -6s-4 -3 -6 -3h-494c-2 0 -4 1 -6 3s-3 4 -3 6v55c0 2 1 5 3 7s4 2 6 2h494c2 0 4 0 6 -2
s3 -5 3 -7zM512 183v-55c0 -2 -1 -4 -3 -6s-4 -3 -6 -3h-311c-2 0 -4 1 -6 3s-3 4 -3 6v55c0 2 1 4 3 6s4 3 6 3h311c2 0 4 -1 6 -3s3 -4 3 -6zM512 293v-55c0 -2 -1 -5 -3 -7s-4 -2 -6 -2h-311c-2 0 -4 0 -6 2s-3 5 -3 7v55c0 2 1 4 3 6s4 3 6 3h311c2 0 4 -1 6 -3
s3 -4 3 -6zM512 402v-55c0 -2 -1 -4 -3 -6s-4 -3 -6 -3h-494c-2 0 -4 1 -6 3s-3 4 -3 6v55c0 2 1 5 3 7s4 2 6 2h494c2 0 4 0 6 -2s3 -5 3 -7z" />
    <glyph glyph-name="uniF1AD" unicode="&#xf1ad;" horiz-adv-x="459" 
d="M459 395c0 -7 -4 -14 -12 -22l-181 -181v-219h91c5 0 9 -2 13 -6s6 -8 6 -13s-2 -9 -6 -13s-8 -5 -13 -5h-256c-5 0 -8 1 -12 5s-6 8 -6 13s2 9 6 13s7 6 12 6h92v219l-181 181c-8 8 -12 15 -12 22c0 4 2 7 5 10s7 4 11 5s8 1 12 1h403c4 0 8 0 12 -1s8 -2 11 -5
s5 -6 5 -10v0z" />
    <glyph glyph-name="uniF1B5" unicode="&#xf1b5;" horiz-adv-x="512" 
d="M73 64c0 5 -1 9 -5 13s-8 5 -13 5s-9 -1 -13 -5s-5 -8 -5 -13s1 -9 5 -13s8 -5 13 -5s9 1 13 5s5 8 5 13zM475 229c0 10 -4 18 -11 25s-15 11 -25 11h-165c0 4 2 9 5 14s6 11 9 16s6 11 9 19s5 16 5 24c0 13 -5 22 -13 28s-19 9 -33 9c-5 0 -13 -14 -26 -40
c-5 -8 -8 -14 -10 -18c-8 -12 -18 -27 -32 -42s-23 -25 -29 -30c-13 -11 -26 -16 -40 -16h-9v-183h9c14 0 30 -3 48 -9s36 -13 55 -19s36 -9 51 -9c36 0 54 16 54 48c0 5 0 10 -1 16c6 3 10 8 13 15s5 14 5 21s-2 14 -5 20c10 10 15 21 15 34c0 5 -1 9 -3 15s-4 11 -7 14h95
c10 0 19 4 26 11s10 16 10 26v0zM512 229c0 -20 -8 -38 -22 -52s-31 -22 -51 -22h-48c-1 -12 -5 -23 -11 -34c1 -4 1 -8 1 -12c0 -19 -6 -36 -17 -51c0 -26 -9 -47 -25 -62s-37 -23 -64 -23c-25 0 -56 6 -92 19c-31 11 -53 17 -64 17h-82c-10 0 -19 4 -26 11s-11 16 -11 26
v183c0 10 4 18 11 25s16 11 26 11h82c2 0 4 0 6 1s5 2 7 4l6 6s4 3 7 6l6 6s3 3 5 6s4 4 4 5c12 14 22 27 29 37l9 18s8 14 11 20s7 12 11 18s10 11 16 14s13 5 20 5c24 0 43 -6 59 -19s23 -31 23 -54c0 -13 -2 -25 -6 -36h107c20 0 37 -8 51 -22s22 -31 22 -51v0z" />
    <glyph glyph-name="uniF1F7" unicode="&#xf1f7;" 
d="M357 411c23 0 42 -8 58 -24s24 -35 24 -58v-274c0 -23 -8 -42 -24 -58s-35 -24 -58 -24h-208c16 23 27 43 31 60c2 6 7 26 15 59c4 -7 11 -14 21 -19s22 -8 33 -8c34 0 62 14 84 42s33 64 33 107c0 16 -3 31 -10 46s-16 28 -28 40s-26 21 -43 28s-37 10 -57 10
s-38 -3 -55 -8s-32 -13 -44 -22s-22 -19 -31 -31s-15 -24 -19 -37s-6 -24 -6 -37c0 -19 3 -37 11 -52s19 -25 34 -31c2 -1 4 -1 6 0s4 2 5 5c2 8 3 15 4 18c1 4 0 8 -3 12c-10 12 -15 25 -15 42c0 29 10 54 30 74s45 30 77 30c28 0 51 -8 67 -23s24 -35 24 -60
c0 -32 -7 -60 -20 -82s-29 -33 -49 -33c-11 0 -21 4 -28 12s-10 19 -7 30c2 6 4 15 8 26s6 21 8 29s4 15 4 21c0 9 -3 18 -8 24s-13 9 -22 9c-12 0 -21 -5 -29 -16s-12 -24 -12 -40c0 -14 2 -26 7 -35l-28 -118c-5 -19 -5 -43 -2 -72h-53c-23 0 -42 8 -58 24s-24 35 -24 58
v274c0 23 8 42 24 58s35 24 58 24h275v0z" />
    <glyph glyph-name="uniF1CC" unicode="&#xf1cc;" horiz-adv-x="293" 
d="M210 283c0 -2 0 -4 -2 -6s-5 -3 -7 -3s-4 1 -6 3s-3 4 -3 6c0 9 -5 16 -15 21s-21 7 -31 7c-2 0 -4 1 -6 3s-3 4 -3 6s1 4 3 6s4 3 6 3c10 0 20 -1 29 -4s18 -9 25 -16s10 -16 10 -26v0zM256 283c0 14 -3 27 -10 39s-15 21 -26 29s-22 13 -35 17s-26 7 -39 7
s-26 -3 -39 -7s-24 -9 -35 -17s-19 -17 -26 -29s-9 -25 -9 -39c0 -19 6 -36 19 -51l9 -9s6 -8 8 -10c24 -29 39 -57 41 -85h65c2 28 16 56 40 85c2 2 5 6 9 10l9 9c13 15 19 32 19 51v0zM293 283c0 -30 -10 -54 -30 -76c-9 -9 -15 -18 -21 -25s-11 -16 -17 -27
s-9 -21 -10 -31c9 -5 14 -13 14 -23c0 -7 -3 -14 -8 -19c5 -5 8 -11 8 -18c0 -10 -4 -17 -13 -23c2 -4 3 -9 3 -14c0 -9 -3 -15 -9 -20s-13 -7 -22 -7c-4 -8 -9 -15 -17 -20s-16 -7 -25 -7s-17 2 -25 7s-13 12 -17 20c-9 0 -16 2 -22 7s-9 11 -9 20c0 5 2 10 4 14
c-9 6 -13 13 -13 23c0 7 2 13 7 18c-5 5 -7 12 -7 19c0 10 4 18 13 23c-1 10 -3 20 -9 31s-11 20 -17 27s-13 16 -22 25c-20 22 -29 46 -29 76c0 19 5 37 13 53s19 30 33 41s30 19 47 25s35 9 53 9s37 -3 54 -9s32 -14 46 -25s26 -25 34 -41s13 -34 13 -53v0z" />
    <glyph glyph-name="uniF212" unicode="&#xf212;" 
d="M146 82c0 10 -3 19 -10 26s-16 11 -26 11s-19 -4 -26 -11s-11 -16 -11 -26s4 -19 11 -26s16 -10 26 -10s19 3 26 10s10 16 10 26zM247 55c-2 44 -20 83 -51 114s-69 48 -113 50c-3 0 -5 0 -7 -2s-3 -5 -3 -7v-37c0 -2 1 -4 3 -6s4 -3 6 -3c29 -2 54 -13 75 -34
s33 -47 35 -76c0 -2 1 -4 3 -6s4 -2 6 -2h36c2 0 5 1 7 3s3 3 3 6v0zM356 55c-1 29 -6 58 -16 85s-23 52 -40 74s-36 42 -58 59s-47 30 -74 40s-56 15 -85 16c-3 0 -5 -1 -7 -3s-3 -4 -3 -6v-37c0 -2 1 -4 3 -6s4 -3 6 -3c39 -1 75 -12 108 -32s60 -46 80 -79
s30 -69 31 -108c0 -2 1 -5 3 -7s5 -2 7 -2h36c2 0 5 1 7 3s2 3 2 6zM439 329v-274c0 -23 -8 -42 -24 -58s-35 -24 -58 -24h-275c-23 0 -42 8 -58 24s-24 35 -24 58v274c0 23 8 42 24 58s35 24 58 24h275c23 0 42 -8 58 -24s24 -35 24 -58z" />
    <glyph glyph-name="uniF268" unicode="&#xf268;" horiz-adv-x="512" 
d="M512 347v-310c0 -8 -4 -14 -11 -17c-2 -1 -5 -2 -7 -2c-5 0 -10 2 -13 6l-115 115v-48c0 -23 -8 -42 -24 -58s-36 -24 -59 -24h-201c-23 0 -42 8 -58 24s-24 35 -24 58v202c0 23 8 42 24 58s35 24 58 24h201c23 0 43 -8 59 -24s24 -35 24 -58v-48l115 115c3 4 8 6 13 6
c2 0 5 -1 7 -2c7 -3 11 -9 11 -17v0z" />
    <glyph glyph-name="uniF1D7" unicode="&#xf1d7;" horiz-adv-x="494" 
d="M494 219v-54c0 -3 -1 -5 -3 -7s-3 -3 -6 -3h-357v-64c0 -4 -1 -6 -5 -8s-7 0 -10 2l-110 100c-2 2 -3 4 -3 6c0 3 1 5 3 7l110 101c3 3 6 4 10 2s5 -4 5 -8v-64h357c3 0 4 -1 6 -3s3 -4 3 -7v0z" />
    <glyph glyph-name="uniF147" unicode="&#xf147;" horiz-adv-x="165" 
d="M165 192c0 -5 -2 -9 -6 -13l-128 -128c-4 -4 -8 -5 -13 -5s-9 1 -13 5s-5 8 -5 13v256c0 5 1 9 5 13s8 5 13 5s9 -1 13 -5l128 -128c4 -4 6 -8 6 -13z" />
    <glyph glyph-name="uniF26B" unicode="&#xf26b;" horiz-adv-x="329" 
d="M219 347v-310c0 -5 -1 -9 -5 -13s-8 -6 -13 -6s-9 2 -13 6l-95 95h-75c-5 0 -9 1 -13 5s-5 8 -5 13v110c0 5 1 9 5 13s8 5 13 5h75l95 95c4 4 8 6 13 6s9 -2 13 -6s5 -8 5 -13v0zM329 192c0 -14 -4 -28 -12 -40s-19 -22 -32 -27c-2 -1 -4 -2 -7 -2c-5 0 -9 2 -13 6
s-6 8 -6 13c0 4 2 7 4 10s5 5 8 7s7 5 10 7s6 6 8 10s4 10 4 16s-2 12 -4 16s-5 8 -8 10s-7 5 -10 7s-6 4 -8 7s-4 6 -4 10c0 5 2 9 6 13s8 6 13 6c3 0 5 -1 7 -2c13 -5 24 -13 32 -26s12 -27 12 -41z" />
    <glyph glyph-name="uniF15A" unicode="&#xf15a;" 
d="M256 293v-128c0 -3 -1 -5 -3 -7s-3 -3 -6 -3h-92c-3 0 -4 1 -6 3s-3 4 -3 7v18c0 3 1 4 3 6s3 3 6 3h64v101c0 3 1 4 3 6s4 3 7 3h18c3 0 4 -1 6 -3s3 -3 3 -6v0zM375 192c0 28 -7 54 -21 78s-33 43 -57 57s-50 20 -78 20s-54 -6 -78 -20s-42 -33 -56 -57
s-21 -50 -21 -78s7 -54 21 -78s32 -43 56 -57s50 -20 78 -20s54 6 78 20s43 33 57 57s21 50 21 78zM439 192c0 -40 -10 -76 -30 -110s-45 -60 -79 -80s-71 -29 -111 -29s-76 9 -110 29s-60 46 -80 80s-29 70 -29 110s9 76 29 110s46 60 80 80s70 29 110 29s77 -9 111 -29
s59 -46 79 -80s30 -70 30 -110z" />
    <glyph glyph-name="uniF127" unicode="&#xf127;" horiz-adv-x="445" 
d="M445 171c0 -10 -3 -19 -10 -26l-22 -22c-7 -7 -16 -10 -26 -10s-19 3 -26 10l-84 84v-201c0 -10 -3 -18 -10 -24s-16 -9 -26 -9h-37c-10 0 -19 3 -26 9s-10 14 -10 24v201l-84 -84c-7 -7 -16 -10 -26 -10s-19 3 -26 10l-21 22c-7 7 -11 16 -11 26s4 19 11 26l186 186
c7 7 16 10 26 10s19 -3 26 -10l186 -186c7 -7 10 -16 10 -26z" />
    <glyph glyph-name="uniF19F" unicode="&#xf19f;" horiz-adv-x="513" 
d="M479 198c0 6 -5 9 -14 9h-293c-7 0 -15 -2 -23 -6s-14 -8 -19 -14l-79 -97c-3 -4 -5 -8 -5 -11c0 -6 5 -10 14 -10h293c7 0 15 2 23 6s15 9 19 15l79 97c3 4 5 8 5 11v0zM172 241h207v44c0 7 -3 13 -8 18s-11 7 -18 7h-155c-7 0 -13 3 -18 8s-8 11 -8 18v17
c0 7 -2 14 -7 19s-12 7 -19 7h-86c-7 0 -13 -2 -18 -7s-8 -12 -8 -19v-229l69 85c8 9 18 17 31 23s26 9 38 9zM513 198c0 -11 -4 -23 -12 -33l-79 -97c-8 -9 -19 -18 -32 -24s-25 -9 -37 -9h-293c-16 0 -30 6 -42 18s-18 26 -18 42v258c0 16 6 31 18 43s26 18 42 18h86
c16 0 31 -6 43 -18s18 -27 18 -43v-8h146c16 0 30 -6 42 -18s18 -26 18 -42v-44h52c10 0 18 -2 26 -6s14 -11 18 -19c3 -6 4 -12 4 -18z" />
    <glyph glyph-name="uniF21B" unicode="&#xf21b;" horiz-adv-x="366" 
d="M311 174v183h-128v-325c23 12 43 25 61 39c45 35 67 69 67 103zM366 393v-219c0 -16 -4 -33 -10 -49s-15 -31 -24 -43s-20 -24 -33 -36s-25 -22 -36 -30s-23 -15 -35 -22s-21 -12 -26 -14s-9 -5 -12 -6c-2 -1 -4 -1 -7 -1s-6 0 -8 1c-3 1 -7 4 -12 6s-13 7 -25 14
s-24 14 -35 22s-23 18 -36 30s-25 24 -34 36s-17 27 -23 43s-10 33 -10 49v219c0 5 1 9 5 13s8 5 13 5h329c5 0 9 -1 13 -5s6 -8 6 -13v0z" />
    <glyph glyph-name="uniF210" unicode="&#xf210;" 
d="M439 375v-128c0 -5 -2 -9 -6 -13s-7 -5 -12 -5h-128c-8 0 -14 3 -17 11c-3 7 -2 14 4 20l39 39c-28 26 -62 39 -100 39c-20 0 -38 -3 -56 -11s-34 -19 -47 -32s-23 -28 -31 -46s-12 -37 -12 -57s4 -39 12 -57s18 -33 31 -46s29 -24 47 -32s36 -11 56 -11c23 0 45 5 65 15
s37 24 51 42c1 2 3 3 6 3s6 -1 8 -3l39 -39c2 -2 2 -4 2 -6s0 -4 -2 -6c-21 -25 -45 -45 -75 -59s-61 -20 -94 -20c-30 0 -58 5 -85 17s-50 27 -70 47s-35 43 -47 70s-17 55 -17 85s5 58 17 85s27 50 47 70s43 35 70 47s55 17 85 17c28 0 56 -4 82 -15s50 -26 70 -45l37 37
c6 6 12 7 20 4c7 -3 11 -9 11 -17v0z" />
    <glyph glyph-name="uniF112" unicode="&#xf112;" horiz-adv-x="285" 
d="M285 201c0 -2 -1 -4 -3 -6l-133 -134c-2 -2 -4 -2 -6 -2s-5 0 -7 2l-133 134c-2 2 -3 4 -3 6s1 5 3 7l14 14c2 2 5 3 7 3s4 -1 6 -3l113 -112l112 112c2 2 4 3 6 3s5 -1 7 -3l14 -14c2 -2 3 -5 3 -7v0zM285 311c0 -2 -1 -5 -3 -7l-133 -133c-2 -2 -4 -3 -6 -3s-5 1 -7 3
l-133 133c-2 2 -3 5 -3 7s1 4 3 6l14 15c2 2 5 3 7 3s4 -1 6 -3l113 -113l112 113c2 2 4 3 6 3s5 -1 7 -3l14 -15c2 -2 3 -4 3 -6v0z" />
    <glyph glyph-name="uniF274" unicode="&#xf274;" horiz-adv-x="402" 
d="M171 257c-2 -3 -27 -47 -74 -130c-5 -9 -11 -13 -18 -13h-69c-4 0 -7 2 -9 5s-2 6 0 10l73 128v0l-46 80c-2 4 -3 8 -1 11s6 4 10 4h68c8 0 14 -4 19 -13zM401 441c2 -3 2 -7 0 -11l-151 -267v0l96 -176c2 -4 2 -7 0 -10s-5 -4 -9 -4h-68c-8 0 -14 3 -19 12l-97 178
c3 6 54 96 152 269c5 9 11 13 18 13h69c4 0 7 -1 9 -4v0z" />
    <glyph glyph-name="uniF25E" unicode="&#xf25e;" 
d="M366 274c-11 -5 -23 -8 -35 -10c13 8 22 18 27 33c-12 -7 -26 -12 -39 -14c-12 13 -25 19 -43 19c-17 0 -31 -6 -43 -18s-17 -25 -17 -42c0 -6 0 -10 1 -14c-25 1 -47 8 -69 19s-40 26 -55 44c-6 -10 -8 -19 -8 -30c0 -22 9 -38 26 -50c-9 0 -19 2 -29 7v-1
c0 -14 5 -27 15 -38s21 -17 35 -20c-6 -2 -11 -3 -15 -3c-2 0 -6 0 -11 1c4 -12 11 -21 21 -29s22 -12 35 -12c-22 -17 -47 -26 -75 -26c-5 0 -9 0 -14 1c28 -18 59 -27 92 -27c21 0 41 3 60 10s35 16 48 27s25 24 35 39s16 31 21 47s7 32 7 48v8c12 9 22 19 30 31v0z
M439 329v-274c0 -23 -8 -42 -24 -58s-35 -24 -58 -24h-275c-23 0 -42 8 -58 24s-24 35 -24 58v274c0 23 8 42 24 58s35 24 58 24h275c23 0 42 -8 58 -24s24 -35 24 -58z" />
    <glyph glyph-name="uniF200" unicode="&#xf200;" 
d="M439 192c0 -30 -6 -58 -18 -85s-26 -50 -46 -70s-43 -35 -70 -47s-56 -17 -86 -17s-58 5 -85 17s-50 27 -70 47s-35 43 -47 70s-17 55 -17 85c0 35 8 67 23 98s37 56 65 77c8 6 17 8 27 7s18 -6 24 -14s8 -17 7 -27s-6 -18 -14 -24c-19 -14 -34 -32 -44 -52
s-15 -42 -15 -65c0 -20 4 -39 12 -57s18 -33 31 -46s29 -24 47 -32s36 -11 56 -11s39 3 57 11s34 19 47 32s23 28 31 46s12 37 12 57c0 23 -6 45 -16 65s-24 38 -43 52c-8 6 -13 14 -14 24s1 19 7 27s14 13 24 14s19 -1 27 -7c28 -21 50 -46 65 -77s23 -63 23 -98v0z
M256 411v-182c0 -10 -4 -19 -11 -26s-16 -11 -26 -11s-18 4 -25 11s-11 16 -11 26v182c0 10 4 19 11 26s15 11 25 11s19 -4 26 -11s11 -16 11 -26z" />
    <glyph glyph-name="uniF182" unicode="&#xf182;" 
d="M219 411c40 0 77 -9 111 -29s59 -46 79 -80s30 -70 30 -110s-10 -76 -30 -110s-45 -60 -79 -80s-71 -29 -111 -29s-76 9 -110 29s-60 46 -80 80s-29 70 -29 110s9 76 29 110s46 60 80 80s70 29 110 29zM256 55v54c0 3 -1 5 -3 7s-4 3 -6 3h-55c-2 0 -4 -1 -6 -3
s-3 -5 -3 -7v-54c0 -2 1 -4 3 -6s4 -3 6 -3h55c2 0 4 0 6 2s3 4 3 7zM255 153l6 178c0 2 -1 4 -3 5c-2 2 -4 2 -7 2h-63c-3 0 -5 0 -7 -2c-2 -1 -3 -3 -3 -5l5 -178c0 -2 1 -4 3 -5s4 -2 7 -2h53c3 0 4 1 6 2s3 3 3 5z" />
    <glyph glyph-name="uniF1CA" unicode="&#xf1ca;" horiz-adv-x="293" 
d="M9 375h201c2 0 5 -1 7 -3s3 -4 3 -7v-246h54c8 0 14 -4 17 -11s2 -13 -3 -19l-91 -110c-3 -4 -8 -6 -14 -6s-11 2 -14 6l-91 110c-5 6 -6 12 -3 19s9 11 17 11h54v183h-91c-3 0 -5 1 -7 3l-46 55c-2 3 -3 5 -1 9s4 6 8 6v0z" />
    <glyph glyph-name="uniF251" unicode="&#xf251;" horiz-adv-x="293" 
d="M146 119c0 7 -1 14 -5 20c0 0 -2 2 -5 6s-5 8 -7 11s-4 7 -7 12s-5 11 -6 15c-1 3 -3 4 -6 4s-5 -1 -6 -4c-1 -4 -3 -10 -6 -15s-5 -9 -7 -12s-5 -7 -8 -11s-4 -6 -4 -6c-4 -6 -6 -13 -6 -20c0 -10 4 -19 11 -26s16 -11 26 -11s19 4 26 11s10 16 10 26v0zM293 155
c0 -40 -14 -74 -43 -103s-64 -43 -104 -43s-74 14 -103 43s-43 63 -43 103c0 28 8 54 23 79c1 2 7 10 18 26s21 30 29 43s18 30 28 51s19 39 24 57c2 6 5 11 10 14s9 5 14 5s10 -2 15 -5s8 -8 10 -14c5 -18 13 -36 23 -57s21 -38 29 -51s18 -27 29 -43s16 -24 17 -26
c15 -24 24 -51 24 -79z" />
    <glyph glyph-name="uniF16E" unicode="&#xf16e;" horiz-adv-x="512" 
d="M274 192c5 0 9 -1 13 -5s6 -8 6 -13s-2 -9 -6 -13s-8 -6 -13 -6s-9 2 -13 6s-5 8 -5 13s1 9 5 13s8 5 13 5zM360 174l145 -114c5 -4 8 -9 7 -16s-4 -12 -10 -15l-37 -18c-2 -1 -5 -2 -8 -2s-6 0 -9 2l-197 111l-31 -19c-2 -1 -3 -1 -4 -1c3 -9 4 -19 3 -28
c-1 -15 -7 -29 -16 -42s-22 -25 -38 -35c-25 -16 -51 -24 -79 -24c-26 0 -47 7 -63 22c-17 16 -25 36 -23 59c1 14 7 28 16 42s22 25 38 35c25 16 51 24 79 24c16 0 30 -2 43 -8c2 2 5 4 7 6l34 21l-34 21c-2 2 -5 4 -7 6c-13 -6 -27 -9 -43 -9c-28 0 -54 8 -79 24
c-16 10 -29 21 -38 35s-15 28 -16 42c-1 11 1 23 5 33s10 19 18 26c16 15 37 23 63 23c28 0 54 -8 79 -24c16 -10 29 -21 38 -35s15 -28 16 -43c1 -9 0 -18 -3 -27c1 0 2 -1 4 -2l31 -19l197 111c3 2 6 2 9 2s6 -1 8 -2l37 -18c6 -3 9 -8 10 -15s-2 -12 -7 -16zM165 248
c9 8 11 18 6 31s-15 23 -30 33c-18 11 -36 17 -55 17c-14 0 -25 -3 -32 -10c-9 -8 -11 -18 -6 -31s15 -23 30 -33c18 -11 36 -17 55 -17c14 0 25 3 32 10zM141 35c15 10 25 21 30 34s3 22 -6 30c-7 7 -18 11 -32 11c-19 0 -37 -6 -55 -17c-15 -10 -25 -21 -30 -34
s-3 -22 6 -30c7 -7 18 -11 32 -11c19 0 37 6 55 17zM192 210l27 -16v3c0 7 4 12 10 16l4 2l-23 14l-7 -8c-1 -1 -2 -1 -3 -3s-2 -2 -3 -3l-2 -1v-1zM256 146l27 -9l211 165l-37 18l-219 -123v-32l-46 -28l3 -2l2 -2s2 -1 3 -3s2 -3 3 -4l7 -7zM457 27l37 19l-149 116
l-50 -39c0 -1 -2 -1 -4 -2z" />
    <glyph glyph-name="uniF1C4" unicode="&#xf1c4;" horiz-adv-x="481" 
d="M238 302c0 15 -5 28 -16 39s-24 16 -39 16s-28 -5 -39 -16s-16 -24 -16 -39c0 -8 1 -16 5 -24c-8 4 -15 5 -23 5c-15 0 -28 -5 -39 -16s-16 -23 -16 -38s5 -28 16 -39s24 -16 39 -16s28 5 39 16s16 24 16 39c0 8 -2 15 -6 23c8 -4 16 -5 24 -5s21 5 39 16s23 24 16 39z
M481 101c0 -3 -5 -10 -14 -19s-16 -14 -19 -14c-2 0 -4 1 -8 4s-8 7 -11 10l-11 11s-6 7 -7 8l-27 -28l63 -63c5 -5 8 -11 8 -19s-4 -16 -11 -23s-15 -11 -23 -11s-15 3 -20 8l-192 191c-34 -25 -68 -37 -104 -37c-31 0 -56 9 -76 29s-29 45 -29 76c0 30 9 60 27 89
s42 53 71 71s59 27 89 27c31 0 56 -9 76 -29s30 -45 30 -76c0 -36 -13 -70 -38 -104l102 -101l27 27l-7 7s-9 8 -12 11s-6 6 -9 10s-5 7 -5 9c0 3 5 9 14 18s16 14 19 14c2 0 5 0 7 -2c1 -1 5 -6 13 -13s15 -15 23 -23s17 -15 25 -24s16 -17 21 -23s8 -9 8 -11v0z" />
    <glyph glyph-name="uniF1C6" unicode="&#xf1c6;" horiz-adv-x="516" 
d="M112 104c-12 0 -23 4 -31 12s-12 19 -12 31v189c0 12 4 23 12 31s19 12 31 12h292c12 0 23 -4 31 -12s12 -19 12 -31v-189c0 -12 -4 -23 -12 -31s-19 -12 -31 -12h-292zM103 336v-189c0 -2 1 -4 3 -6s4 -3 6 -3h292c2 0 4 1 6 3s3 4 3 6v189c0 2 -1 4 -3 6s-4 3 -6 3
h-292c-2 0 -4 -1 -6 -3s-3 -4 -3 -6zM473 87h43v-26c0 -7 -4 -14 -12 -19s-19 -7 -31 -7h-430c-12 0 -22 2 -30 7s-13 12 -13 19v26h473v0zM280 61c3 0 4 1 4 4s-1 4 -4 4h-43c-3 0 -5 -1 -5 -4s2 -4 5 -4h43z" />
    <glyph glyph-name="uniF113" unicode="&#xf113;" horiz-adv-x="276" 
d="M166 55c0 -2 -1 -5 -3 -7l-14 -14c-2 -2 -4 -3 -6 -3s-5 1 -7 3l-133 133c-2 2 -3 5 -3 7s1 4 3 6l133 133c2 2 5 3 7 3s4 -1 6 -3l14 -14c2 -2 3 -4 3 -6s-1 -5 -3 -7l-112 -112l112 -113c2 -2 3 -4 3 -6v0zM276 55c0 -2 -1 -5 -3 -7l-14 -14c-2 -2 -5 -3 -7 -3
s-4 1 -6 3l-133 133c-2 2 -3 5 -3 7s1 4 3 6l133 133c2 2 4 3 6 3s5 -1 7 -3l14 -14c2 -2 3 -4 3 -6s-1 -5 -3 -7l-112 -112l112 -113c2 -2 3 -4 3 -6v0z" />
    <glyph glyph-name="uniF16D" unicode="&#xf16d;" horiz-adv-x="505" 
d="M75 411h430l-76 -380l-230 -77l-199 77l20 101h85l-8 -42l120 -46l139 46l20 97h-345l16 85h346l10 55h-345z" />
    <glyph glyph-name="uniF159" unicode="&#xf159;" 
d="M219 347c-28 0 -54 -6 -78 -20s-42 -33 -56 -57s-21 -50 -21 -78s7 -54 21 -78s32 -43 56 -57s50 -20 78 -20s54 6 78 20s43 33 57 57s21 50 21 78s-7 54 -21 78s-33 43 -57 57s-50 20 -78 20zM439 192c0 -40 -10 -76 -30 -110s-45 -60 -79 -80s-71 -29 -111 -29
s-76 9 -110 29s-60 46 -80 80s-29 70 -29 110s9 76 29 110s46 60 80 80s70 29 110 29s77 -9 111 -29s59 -46 79 -80s30 -70 30 -110z" />
    <glyph glyph-name="uniF1B1" unicode="&#xf1b1;" horiz-adv-x="516" 
d="M159 207c-29 -1 -53 -12 -71 -34h-36c-15 0 -27 4 -37 11s-15 17 -15 31c0 63 11 95 33 95c1 0 5 -1 12 -5s15 -8 26 -12s21 -6 32 -6c12 0 24 3 36 7c-1 -7 -1 -13 -1 -18c0 -25 6 -48 21 -69zM447 36c0 -22 -6 -39 -19 -51s-30 -19 -52 -19h-235c-22 0 -40 7 -53 19
s-19 29 -19 51c0 9 0 19 1 28s2 19 4 29s4 20 7 29s6 17 11 26s11 16 17 22s14 10 23 14s19 6 30 6c2 0 5 -2 11 -6s13 -8 20 -13s17 -9 29 -13s24 -6 36 -6s24 2 36 6s22 8 29 13s14 9 20 13s9 6 11 6c11 0 21 -2 30 -6s17 -8 23 -14s12 -13 17 -22s9 -17 12 -26
s5 -19 7 -29s3 -20 4 -29s1 -18 1 -28h-1zM172 379c0 -19 -7 -36 -20 -49s-30 -20 -49 -20s-35 7 -48 20s-21 30 -21 49s8 36 21 49s29 20 48 20s36 -7 49 -20s20 -30 20 -49zM361 276c0 -29 -10 -53 -30 -73s-44 -30 -73 -30s-53 10 -73 30s-30 44 -30 73s10 53 30 73
s44 30 73 30s53 -10 73 -30s30 -44 30 -73zM516 215c0 -14 -5 -24 -15 -31s-22 -11 -37 -11h-36c-18 22 -42 33 -71 34c15 21 22 44 22 69c0 5 -1 11 -2 18c12 -4 24 -7 36 -7c11 0 21 2 32 6s19 8 26 12s11 5 12 5c22 0 33 -32 33 -95zM482 379c0 -19 -7 -36 -20 -49
s-30 -20 -49 -20s-36 7 -49 20s-20 30 -20 49s7 36 20 49s30 20 49 20s36 -7 49 -20s20 -30 20 -49z" />
    <glyph glyph-name="uniF144" unicode="&#xf144;" horiz-adv-x="512" 
d="M265 210c0 3 0 5 -2 7s-4 2 -7 2c-13 0 -23 -4 -32 -13s-14 -19 -14 -32c0 -3 1 -5 3 -7s3 -2 6 -2s5 0 7 2s3 4 3 7c0 8 3 14 8 19s11 8 19 8c3 0 5 1 7 3s2 3 2 6v0zM329 173c0 -20 -7 -38 -21 -52s-32 -21 -52 -21s-38 7 -52 21s-21 32 -21 52s7 38 21 52s32 21 52 21
s38 -7 52 -21s21 -32 21 -52zM37 9h438v37h-438v-37zM366 173c0 30 -11 57 -32 78s-48 32 -78 32s-57 -11 -78 -32s-32 -48 -32 -78s11 -56 32 -77s48 -33 78 -33s57 12 78 33s32 47 32 77zM73 357h110v36h-110v-36zM37 302h438v73h-236l-18 -37h-184v-36v0zM512 375v-366
c0 -10 -4 -19 -11 -26s-16 -10 -26 -10h-438c-10 0 -19 3 -26 10s-11 16 -11 26v366c0 10 4 19 11 26s16 10 26 10h438c10 0 19 -3 26 -10s11 -16 11 -26z" />
    <glyph glyph-name="uniF1E0" unicode="&#xf1e0;" horiz-adv-x="502" 
d="M499 227l-47 -218h-96l51 238c2 11 1 19 -4 25s-13 9 -24 9h-48l-58 -272h-96l58 272h-81l-59 -272h-95l58 272l-43 94h364c19 0 37 -4 54 -12s31 -18 42 -32s20 -30 24 -48s4 -37 0 -56v0z" />
    <glyph glyph-name="uniF1FB" unicode="&#xf1fb;" 
d="M338 192c0 -7 -3 -13 -9 -16l-155 -91c-3 -2 -6 -3 -9 -3s-7 1 -10 3c-6 4 -9 9 -9 16v182c0 7 3 12 9 16c6 3 13 4 19 0l155 -91c6 -3 9 -9 9 -16v0zM375 192c0 28 -7 54 -21 78s-33 43 -57 57s-50 20 -78 20s-54 -6 -78 -20s-42 -33 -56 -57s-21 -50 -21 -78
s7 -54 21 -78s32 -43 56 -57s50 -20 78 -20s54 6 78 20s43 33 57 57s21 50 21 78zM439 192c0 -40 -10 -76 -30 -110s-45 -60 -79 -80s-71 -29 -111 -29s-76 9 -110 29s-60 46 -80 80s-29 70 -29 110s9 76 29 110s46 60 80 80s70 29 110 29s77 -9 111 -29s59 -46 79 -80
s30 -70 30 -110z" />
    <glyph glyph-name="uniF160" unicode="&#xf160;" horiz-adv-x="293" 
d="M82 27c0 8 -3 15 -8 20s-11 8 -19 8s-15 -3 -20 -8s-8 -12 -8 -20s3 -14 8 -19s12 -8 20 -8s14 3 19 8s8 11 8 19zM82 357c0 8 -3 14 -8 19s-11 8 -19 8s-15 -3 -20 -8s-8 -11 -8 -19s3 -15 8 -20s12 -8 20 -8s14 3 19 8s8 12 8 20zM265 320c0 8 -3 14 -8 19s-11 8 -19 8
s-15 -3 -20 -8s-8 -11 -8 -19s3 -14 8 -19s12 -8 20 -8s14 3 19 8s8 11 8 19zM293 320c0 -10 -3 -20 -8 -28s-12 -14 -20 -19c0 -55 -21 -95 -64 -119c-13 -7 -32 -15 -58 -23c-24 -8 -41 -14 -49 -20s-12 -16 -12 -29v-7c8 -5 15 -12 20 -20s8 -18 8 -28
c0 -15 -5 -27 -16 -38s-24 -16 -39 -16s-28 5 -39 16s-16 23 -16 38c0 10 2 20 7 28s12 15 20 20v234c-8 5 -15 12 -20 20s-7 18 -7 28c0 15 5 27 16 38s24 16 39 16s28 -5 39 -16s16 -23 16 -38c0 -10 -3 -20 -8 -28s-12 -15 -20 -20v-142c10 5 25 10 44 16c10 3 19 7 25 9
s13 5 20 9s13 7 17 11s8 9 12 15s6 11 8 19s2 17 2 27c-8 5 -15 11 -20 19s-7 18 -7 28c0 15 5 28 16 39s24 16 39 16s28 -5 39 -16s16 -24 16 -39v0z" />
    <glyph glyph-name="uniF249" unicode="&#xf249;" horiz-adv-x="457" 
d="M73 283c0 5 -1 9 -5 13s-8 6 -13 6s-9 -2 -13 -6s-5 -8 -5 -13s1 -8 5 -12s8 -6 13 -6s9 2 13 6s5 7 5 12zM119 137c0 -5 -2 -9 -6 -13s-7 -5 -12 -5h-83c-5 0 -9 1 -13 5s-5 8 -5 13v183c0 5 1 9 5 13s8 5 13 5h83c5 0 8 -1 12 -5s6 -8 6 -13v-183zM441 180
c10 -12 16 -26 16 -43c0 -15 -5 -27 -16 -38s-24 -17 -39 -17h-79c1 -3 1 -5 2 -7s3 -4 4 -6s1 -4 2 -5c3 -7 6 -12 8 -16s4 -10 6 -17s2 -15 2 -22v-11s0 -7 -1 -13s-3 -10 -4 -14s-3 -8 -6 -13s-8 -9 -12 -12s-10 -5 -17 -7s-15 -3 -24 -3c-5 0 -8 1 -12 5s-7 9 -10 15
s-5 11 -6 15s-2 10 -3 17c-2 8 -3 13 -4 17s-3 8 -5 14s-6 11 -9 14c-6 6 -16 17 -29 34c-9 12 -19 24 -29 35s-16 17 -21 17s-10 1 -13 5s-5 8 -5 13v183c0 5 2 9 6 13s7 5 12 5c7 0 23 5 46 13c15 5 26 8 34 11s20 5 35 8s28 5 41 5h37c25 0 44 -8 56 -22
c11 -13 16 -31 14 -52c7 -7 12 -16 15 -27c3 -12 3 -22 0 -33c9 -12 14 -26 13 -40c0 -6 -2 -13 -5 -21v0z" />
    <glyph glyph-name="uniF207" unicode="&#xf207;" horiz-adv-x="475" 
d="M219 357v-202c0 -20 -3 -38 -11 -56s-18 -34 -31 -47s-29 -23 -47 -31s-37 -12 -57 -12h-18c-5 0 -9 2 -13 6s-5 7 -5 12v37c0 5 1 9 5 13s8 5 13 5h18c20 0 38 8 52 22s21 31 21 51v10c0 8 -3 14 -8 19s-11 8 -19 8h-64c-15 0 -28 5 -39 16s-16 24 -16 39v110
c0 15 5 27 16 38s24 16 39 16h110c15 0 27 -5 38 -16s16 -23 16 -38zM475 357v-202c0 -20 -3 -38 -11 -56s-18 -34 -31 -47s-29 -23 -47 -31s-37 -12 -57 -12h-18c-5 0 -9 2 -13 6s-5 7 -5 12v37c0 5 1 9 5 13s8 5 13 5h18c20 0 38 8 52 22s21 31 21 51v10c0 8 -3 14 -8 19
s-11 8 -19 8h-64c-15 0 -28 5 -39 16s-16 24 -16 39v110c0 15 5 27 16 38s24 16 39 16h110c15 0 27 -5 38 -16s16 -23 16 -38z" />
    <glyph glyph-name="uniF1FD" unicode="&#xf1fd;" 
d="M347 174v36c0 5 -1 9 -5 13s-8 6 -13 6h-73v73c0 5 -1 9 -5 13s-8 5 -13 5h-37c-5 0 -9 -1 -13 -5s-5 -8 -5 -13v-73h-73c-5 0 -9 -2 -13 -6s-6 -8 -6 -13v-36c0 -5 2 -9 6 -13s8 -6 13 -6h73v-73c0 -5 1 -9 5 -13s8 -5 13 -5h37c5 0 9 1 13 5s5 8 5 13v73h73
c5 0 9 2 13 6s5 8 5 13zM439 192c0 -40 -10 -76 -30 -110s-45 -60 -79 -80s-71 -29 -111 -29s-76 9 -110 29s-60 46 -80 80s-29 70 -29 110s9 76 29 110s46 60 80 80s70 29 110 29s77 -9 111 -29s59 -46 79 -80s30 -70 30 -110z" />
    <glyph glyph-name="uniF116" unicode="&#xf116;" horiz-adv-x="285" 
d="M285 238c0 -2 -1 -5 -3 -7l-133 -133c-2 -2 -4 -3 -6 -3s-5 1 -7 3l-133 133c-2 2 -3 5 -3 7s1 4 3 6l14 15c2 2 5 2 7 2s4 0 6 -2l113 -113l112 113c2 2 4 2 6 2s5 0 7 -2l14 -15c2 -2 3 -4 3 -6v0z" />
    <glyph glyph-name="uniF206" unicode="&#xf206;" horiz-adv-x="475" 
d="M219 174v-110c0 -15 -5 -28 -16 -39s-23 -16 -38 -16h-110c-15 0 -28 5 -39 16s-16 24 -16 39v201c0 20 4 39 12 57s18 34 31 47s29 23 47 31s36 11 56 11h19c5 0 8 -1 12 -5s6 -8 6 -13v-36c0 -5 -2 -9 -6 -13s-7 -6 -12 -6h-19c-20 0 -37 -7 -51 -21s-22 -32 -22 -52
v-9c0 -8 3 -14 8 -19s12 -8 20 -8h64c15 0 27 -5 38 -16s16 -24 16 -39zM475 174v-110c0 -15 -5 -28 -16 -39s-23 -16 -38 -16h-110c-15 0 -28 5 -39 16s-16 24 -16 39v201c0 20 4 39 12 57s18 34 31 47s29 23 47 31s36 11 56 11h19c5 0 8 -1 12 -5s6 -8 6 -13v-36
c0 -5 -2 -9 -6 -13s-7 -6 -12 -6h-19c-20 0 -37 -7 -51 -21s-22 -32 -22 -52v-9c0 -8 3 -14 8 -19s12 -8 20 -8h64c15 0 27 -5 38 -16s16 -24 16 -39z" />
    <glyph glyph-name="uniF18B" unicode="&#xf18b;" horiz-adv-x="512" 
d="M13 -24c-4 -4 -7 -4 -9 -3s-4 4 -4 9v420c0 5 2 8 4 9s5 1 9 -3l203 -203c2 -2 2 -4 3 -6v203c0 5 2 8 4 9s5 1 9 -3l203 -203c2 -2 3 -4 4 -6v194c0 5 1 9 5 13s8 5 13 5h37c5 0 9 -1 13 -5s5 -8 5 -13v-402c0 -5 -1 -9 -5 -13s-8 -5 -13 -5h-37c-5 0 -9 1 -13 5
s-5 8 -5 13v194c-1 -2 -2 -4 -4 -6l-203 -203c-4 -4 -7 -4 -9 -3s-4 4 -4 9v203c-1 -2 -1 -4 -3 -6z" />
    <glyph glyph-name="uniF252" unicode="&#xf252;" 
d="M327 255c3 -7 3 -13 -1 -19l-92 -128c-4 -5 -9 -7 -15 -7s-10 2 -14 7l-92 128c-4 6 -4 12 -1 19s8 10 16 10h183c8 0 13 -3 16 -10v0zM366 55v274c0 2 -1 5 -3 7s-4 2 -6 2h-275c-2 0 -4 0 -6 -2s-3 -5 -3 -7v-274c0 -2 1 -5 3 -7s4 -2 6 -2h275c2 0 4 0 6 2s3 5 3 7z
M439 329v-274c0 -23 -8 -42 -24 -58s-35 -24 -58 -24h-275c-23 0 -42 8 -58 24s-24 35 -24 58v274c0 23 8 42 24 58s35 24 58 24h275c23 0 42 -8 58 -24s24 -35 24 -58z" />
    <glyph glyph-name="uniF16A" unicode="&#xf16a;" horiz-adv-x="516" 
d="M473 414c12 0 23 -5 31 -13s12 -18 12 -30v-327c0 -12 -4 -23 -12 -31s-19 -12 -31 -12h-430c-12 0 -22 4 -30 12s-13 19 -13 31v327c0 12 5 22 13 30s18 13 30 13h430zM43 379c-2 0 -4 0 -6 -2s-3 -4 -3 -6v-61h448v61c0 2 -1 4 -3 6s-4 2 -6 2h-430v0zM473 35
c2 0 4 1 6 3s3 4 3 6v163h-448v-163c0 -2 1 -4 3 -6s4 -3 6 -3h430v0zM69 69v35h69v-35h-69zM172 69v35h103v-35h-103z" />
    <glyph glyph-name="uniF19E" unicode="&#xf19e;" horiz-adv-x="505" 
d="M505 192c0 -6 -2 -12 -8 -18l-90 -106c-8 -9 -19 -18 -33 -24s-26 -9 -38 -9h-293c-6 0 -11 1 -16 3s-7 7 -7 12c0 6 2 12 8 18l90 106c8 9 19 18 33 24s26 9 38 9h293c6 0 11 -1 16 -3s7 -7 7 -12zM413 285v-44h-224c-17 0 -35 -3 -53 -12s-33 -19 -44 -32l-92 -109v4v3
v258c0 16 6 31 18 43s26 18 42 18h86c16 0 31 -6 43 -18s18 -27 18 -43v-8h146c16 0 30 -6 42 -18s18 -26 18 -42v0z" />
    <glyph glyph-name="uniF257" unicode="&#xf257;" 
d="M201 64v293c0 3 0 4 -2 6s-4 3 -7 3h-137c-3 0 -5 -1 -7 -3s-2 -3 -2 -6v-293c0 -3 0 -5 2 -7s4 -2 7 -2h137c3 0 5 0 7 2s2 4 2 7zM393 174v183c0 3 0 4 -2 6s-4 3 -7 3h-137c-3 0 -5 -1 -7 -3s-2 -3 -2 -6v-183c0 -3 0 -5 2 -7s4 -2 7 -2h137c3 0 5 0 7 2s2 4 2 7z
M439 393v-402c0 -5 -2 -9 -6 -13s-7 -5 -12 -5h-403c-5 0 -9 1 -13 5s-5 8 -5 13v402c0 5 1 9 5 13s8 5 13 5h403c5 0 8 -1 12 -5s6 -8 6 -13z" />
    <glyph glyph-name="uniF125" unicode="&#xf125;" horiz-adv-x="421" 
d="M421 192v-37c0 -10 -4 -18 -10 -25s-14 -11 -24 -11h-201l84 -84c7 -7 11 -16 11 -26s-4 -19 -11 -26l-22 -21c-7 -7 -15 -11 -25 -11s-19 4 -26 11l-186 186c-7 7 -11 16 -11 26s4 19 11 26l186 185c7 7 16 11 26 11s18 -4 25 -11l22 -21c7 -7 11 -16 11 -26
s-4 -19 -11 -26l-84 -83h201c10 0 18 -4 24 -11s10 -16 10 -26z" />
    <glyph glyph-name="uniF169" unicode="&#xf169;" horiz-adv-x="512" 
d="M485 338c8 0 14 -3 19 -8s8 -11 8 -19v-348c0 -8 -3 -14 -8 -19s-11 -8 -19 -8h-275c-8 0 -14 3 -19 8s-8 11 -8 19v83h-156c-8 0 -14 3 -19 8s-8 11 -8 19v192c0 8 2 16 6 25s8 17 13 22l117 117c5 5 13 9 22 13s17 6 25 6h119c8 0 14 -3 19 -8s8 -11 8 -19v-94
c13 8 26 11 37 11h119v0zM329 277l-85 -85h85v85zM146 387l-85 -85h85v85zM202 202l91 91v118h-110v-118c0 -8 -3 -15 -8 -20s-12 -8 -20 -8h-118v-183h146v73c0 8 2 17 6 26s8 16 13 21v0zM475 -27v329h-109v-119c0 -8 -3 -15 -8 -20s-12 -8 -20 -8h-119v-182h256v0z" />
    <glyph glyph-name="uniF157" unicode="&#xf157;" horiz-adv-x="445" 
d="M445 101c0 -10 -3 -19 -10 -26l-22 -22c-7 -7 -16 -10 -26 -10s-19 3 -26 10l-138 139l-139 -139c-7 -7 -16 -10 -26 -10s-19 3 -26 10l-21 22c-7 7 -11 16 -11 26s4 19 11 26l186 186c7 7 16 10 26 10s19 -3 26 -10l185 -186c7 -7 11 -16 11 -26z" />
    <glyph glyph-name="uniF154" unicode="&#xf154;" horiz-adv-x="445" 
d="M445 247c0 -10 -3 -19 -10 -26l-186 -186c-7 -7 -16 -11 -26 -11s-19 4 -26 11l-186 186c-7 7 -11 16 -11 26s4 19 11 26l21 21c7 7 16 11 26 11s19 -4 26 -11l139 -139l138 139c7 7 16 11 26 11s19 -4 26 -11l22 -21c7 -7 10 -16 10 -26z" />
    <glyph glyph-name="uniF14D" unicode="&#xf14d;" 
d="M335 216l-121 -121c-4 -4 -8 -5 -13 -5s-9 1 -13 5l-84 84c-4 4 -5 8 -5 13s1 9 5 13l29 29c4 4 8 5 13 5s9 -1 13 -5l42 -42l79 79c4 4 8 5 13 5s8 -1 12 -5l30 -30c4 -4 5 -7 5 -12s-1 -9 -5 -13zM375 192c0 28 -7 54 -21 78s-33 43 -57 57s-50 20 -78 20
s-54 -6 -78 -20s-42 -33 -56 -57s-21 -50 -21 -78s7 -54 21 -78s32 -43 56 -57s50 -20 78 -20s54 6 78 20s43 33 57 57s21 50 21 78zM439 192c0 -40 -10 -76 -30 -110s-45 -60 -79 -80s-71 -29 -111 -29s-76 9 -110 29s-60 46 -80 80s-29 70 -29 110s9 76 29 110
s46 60 80 80s70 29 110 29s77 -9 111 -29s59 -46 79 -80s30 -70 30 -110z" />
    <glyph glyph-name="uniF170" unicode="&#xf170;" horiz-adv-x="512" 
d="M110 119c0 10 -4 19 -11 26s-16 10 -26 10s-19 -3 -26 -10s-10 -16 -10 -26s3 -19 10 -26s16 -11 26 -11s19 4 26 11s11 16 11 26zM165 247c0 10 -4 19 -11 26s-16 10 -26 10s-19 -3 -26 -10s-11 -16 -11 -26s4 -19 11 -26s16 -11 26 -11s19 4 26 11s11 16 11 26z
M287 109l29 110c1 5 1 9 -2 13s-6 8 -11 9s-10 1 -14 -2s-8 -6 -9 -11l-29 -109c-11 -1 -21 -6 -30 -13s-15 -17 -18 -28c-4 -15 -2 -29 6 -42s18 -21 33 -25s29 -2 42 6s21 18 25 33c3 11 2 22 -2 33s-10 20 -20 26v0zM475 119c0 10 -3 19 -10 26s-16 10 -26 10
s-19 -3 -26 -10s-11 -16 -11 -26s4 -19 11 -26s16 -11 26 -11s19 4 26 11s10 16 10 26zM293 302c0 10 -4 19 -11 26s-16 10 -26 10s-19 -3 -26 -10s-11 -16 -11 -26s4 -19 11 -26s16 -11 26 -11s19 4 26 11s11 16 11 26zM421 247c0 10 -4 19 -11 26s-16 10 -26 10
s-19 -3 -26 -10s-11 -16 -11 -26s4 -19 11 -26s16 -11 26 -11s19 4 26 11s11 16 11 26zM512 119c0 -50 -13 -96 -40 -138c-4 -6 -9 -8 -16 -8h-400c-7 0 -12 2 -16 8c-27 42 -40 88 -40 138c0 35 6 67 20 99s32 59 55 82s50 41 82 55s64 20 99 20s67 -6 99 -20
s59 -32 82 -55s41 -50 55 -82s20 -64 20 -99z" />
    <glyph glyph-name="uniF1FC" unicode="&#xf1fc;" horiz-adv-x="402" 
d="M402 238v-55c0 -8 -3 -15 -8 -20s-11 -8 -19 -8h-119v-118c0 -8 -3 -15 -8 -20s-11 -8 -19 -8h-55c-8 0 -15 3 -20 8s-8 12 -8 20v118h-119c-8 0 -14 3 -19 8s-8 12 -8 20v55c0 8 3 14 8 19s11 8 19 8h119v119c0 8 3 14 8 19s12 8 20 8h55c8 0 14 -3 19 -8s8 -11 8 -19
v-119h119c8 0 14 -3 19 -8s8 -11 8 -19z" />
    <glyph glyph-name="uniF22E" unicode="&#xf22e;" horiz-adv-x="354" 
d="M354 90v-19c0 -16 -6 -30 -17 -41s-24 -17 -39 -17h-17l-74 -77v77h-151c-15 0 -29 6 -40 17s-16 25 -16 41v19h354zM354 183v-73h-354v73h354zM354 277v-73h-354v73h354zM354 317v-19h-354v19c0 16 5 30 16 41s25 17 40 17h242c15 0 28 -6 39 -17s17 -25 17 -41z" />
    <glyph glyph-name="uniF21D" unicode="&#xf21d;" 
d="M338 192c0 -5 -1 -9 -5 -13l-156 -155c-4 -4 -7 -6 -12 -6s-9 2 -13 6s-6 8 -6 13v82h-128c-5 0 -9 1 -13 5s-5 8 -5 13v110c0 5 1 9 5 13s8 5 13 5h128v82c0 5 2 9 6 13s8 6 13 6s8 -2 12 -6l156 -155c4 -4 5 -8 5 -13v0zM439 293v-202c0 -23 -8 -42 -24 -58
s-35 -24 -58 -24h-92c-2 0 -4 1 -6 3s-3 4 -3 6v6v8v6s2 5 3 6s4 2 6 2h92c13 0 23 4 32 13s13 19 13 32v202c0 13 -4 23 -13 32s-19 13 -32 13h-90l-3 1h-3l-2 2l-2 3l-1 3v6v8v6s2 5 3 6s4 2 6 2h92c23 0 42 -8 58 -24s24 -35 24 -58v0z" />
    <glyph glyph-name="uniF226" unicode="&#xf226;" horiz-adv-x="503" 
d="M339 0v-55c0 -3 -1 -4 -3 -6s-4 -3 -7 -3h-73c-3 0 -4 1 -6 3s-3 3 -3 6v55c0 3 1 5 3 7s3 2 6 2h73c3 0 5 0 7 -2s3 -4 3 -7zM201 37c0 -2 0 -5 -2 -7l-92 -91c-2 -2 -4 -3 -6 -3s-5 1 -7 3l-91 91c-3 3 -4 6 -2 10s4 6 8 6h55v393c0 3 1 4 3 6s3 3 6 3h55
c3 0 5 -1 7 -3s2 -3 2 -6v-393h55c3 0 5 -1 7 -3s2 -3 2 -6v0zM393 146v-55c0 -3 0 -4 -2 -6s-4 -3 -7 -3h-128c-3 0 -4 1 -6 3s-3 3 -3 6v55c0 3 1 5 3 7s3 2 6 2h128c3 0 5 0 7 -2s2 -4 2 -7zM448 293v-55c0 -3 0 -5 -2 -7s-4 -2 -7 -2h-183c-3 0 -4 0 -6 2s-3 4 -3 7v55
c0 3 1 4 3 6s3 3 6 3h183c3 0 5 -1 7 -3s2 -3 2 -6zM503 439v-55c0 -3 0 -5 -2 -7s-4 -2 -7 -2h-238c-3 0 -4 0 -6 2s-3 4 -3 7v55c0 3 1 4 3 6s3 3 6 3h238c3 0 5 -1 7 -3s2 -3 2 -6z" />
    <glyph glyph-name="uniF10E" unicode="&#xf10e;" horiz-adv-x="512" 
d="M512 64v-37c0 -5 -1 -8 -5 -12s-8 -6 -13 -6h-476c-5 0 -9 2 -13 6s-5 7 -5 12v37c0 5 1 9 5 13s8 5 13 5h476c5 0 9 -1 13 -5s5 -8 5 -13zM512 174v-37c0 -5 -1 -9 -5 -13s-8 -5 -13 -5h-366c-5 0 -9 1 -13 5s-5 8 -5 13v37c0 5 1 9 5 13s8 5 13 5h366c5 0 9 -1 13 -5
s5 -8 5 -13zM512 283v-36c0 -5 -1 -9 -5 -13s-8 -5 -13 -5h-439c-5 0 -9 1 -13 5s-5 8 -5 13v36c0 5 1 9 5 13s8 6 13 6h439c5 0 9 -2 13 -6s5 -8 5 -13zM512 393v-36c0 -5 -1 -9 -5 -13s-8 -6 -13 -6h-329c-5 0 -9 2 -13 6s-6 8 -6 13v36c0 5 2 9 6 13s8 5 13 5h329
c5 0 9 -1 13 -5s5 -8 5 -13z" />
    <glyph glyph-name="uniF1E1" unicode="&#xf1e1;" horiz-adv-x="512" 
d="M366 128v55c0 3 -1 4 -3 6s-3 3 -6 3h-64v64c0 3 -1 5 -3 7s-4 2 -7 2h-54c-3 0 -5 0 -7 -2s-3 -4 -3 -7v-64h-64c-3 0 -4 -1 -6 -3s-3 -3 -3 -6v-55c0 -3 1 -5 3 -7s3 -2 6 -2h64v-64c0 -3 1 -5 3 -7s4 -2 7 -2h54c3 0 5 0 7 2s3 4 3 7v64h64c3 0 4 0 6 2s3 4 3 7z
M183 338h146v37h-146v-37zM73 338v-365h-9c-18 0 -32 5 -45 18s-19 28 -19 46v237c0 18 6 32 19 45s27 19 45 19h9zM411 338v-365h-310v365h45v46c0 8 3 14 8 19s12 8 20 8h164c8 0 15 -3 20 -8s8 -11 8 -19v-46h45v0zM512 274v-237c0 -18 -6 -33 -19 -46s-27 -18 -45 -18
h-9v365h9c18 0 32 -6 45 -19s19 -27 19 -45z" />
    <glyph glyph-name="uniF100" unicode="&#xf100;" horiz-adv-x="440" 
d="M30 305v0l190 -183l190 183c7 7 18 7 25 0s7 -18 0 -25l-202 -201c-7 -7 -18 -7 -25 0l-203 201c-7 7 -7 18 0 25s18 7 25 0z" />
    <glyph glyph-name="uniF128" unicode="&#xf128;" horiz-adv-x="512" 
d="M512 192c0 -5 -1 -9 -5 -13l-74 -73c-4 -4 -7 -5 -12 -5s-9 1 -13 5s-6 8 -6 13v36h-109v-109h36c5 0 9 -2 13 -6s5 -8 5 -13s-1 -8 -5 -12l-73 -74c-4 -4 -8 -5 -13 -5s-9 1 -13 5l-73 74c-4 4 -5 7 -5 12s1 9 5 13s8 6 13 6h36v109h-109v-36c0 -5 -2 -9 -6 -13
s-8 -5 -13 -5s-8 1 -12 5l-74 73c-4 4 -5 8 -5 13s1 9 5 13l74 73c4 4 7 5 12 5s9 -1 13 -5s6 -8 6 -13v-36h109v109h-36c-5 0 -9 2 -13 6s-5 8 -5 13s1 8 5 12l73 74c4 4 8 5 13 5s9 -1 13 -5l73 -74c4 -4 5 -7 5 -12s-1 -9 -5 -13s-8 -6 -13 -6h-36v-109h109v36
c0 5 2 9 6 13s8 5 13 5s8 -1 12 -5l74 -73c4 -4 5 -8 5 -13z" />
    <glyph glyph-name="uniF1DF" unicode="&#xf1df;" horiz-adv-x="293" 
d="M219 265c0 20 -7 38 -21 52s-32 21 -52 21s-37 -7 -51 -21s-22 -32 -22 -52s8 -38 22 -52s31 -21 51 -21s38 7 52 21s21 32 21 52zM293 265c0 -21 -4 -38 -10 -51l-104 -221c-3 -6 -7 -11 -13 -15s-13 -5 -20 -5s-13 1 -19 5s-10 9 -13 15l-105 221c-6 13 -9 30 -9 51
c0 40 14 75 43 104s63 42 103 42s75 -13 104 -42s43 -64 43 -104v0z" />
    <glyph glyph-name="uniF270" unicode="&#xf270;" horiz-adv-x="465" 
d="M292 109l29 -58c-11 -34 -31 -62 -60 -83s-60 -32 -96 -32c-30 0 -58 7 -83 22s-45 35 -60 60s-22 53 -22 83c0 34 10 66 30 94s46 48 78 60l5 -37c-23 -10 -42 -27 -56 -48s-20 -44 -20 -69c0 -35 12 -66 37 -91s56 -37 91 -37c24 0 46 6 66 18s36 29 47 50s16 44 14 68
v0zM449 80l16 -32l-73 -37c-2 -1 -5 -2 -8 -2c-8 0 -13 3 -16 10l-69 136h-134c-5 0 -9 2 -13 5s-5 7 -6 12l-27 222c0 3 0 7 2 12c3 10 8 18 16 24s18 9 28 9c13 0 23 -5 32 -14s13 -19 13 -32s-5 -24 -15 -33s-21 -13 -34 -12l11 -83h121v-36h-117l5 -37h130
c8 0 13 -3 16 -10l65 -130z" />
    <glyph glyph-name="uniF1FE" unicode="&#xf1fe;" 
d="M366 174v36c0 5 -2 9 -6 13s-8 6 -13 6h-91v91c0 5 -1 9 -5 13s-8 5 -13 5h-37c-5 0 -9 -1 -13 -5s-5 -8 -5 -13v-91h-92c-5 0 -8 -2 -12 -6s-6 -8 -6 -13v-36c0 -5 2 -9 6 -13s7 -6 12 -6h92v-91c0 -5 1 -9 5 -13s8 -5 13 -5h37c5 0 9 1 13 5s5 8 5 13v91h91
c5 0 9 2 13 6s6 8 6 13zM439 329v-274c0 -23 -8 -42 -24 -58s-35 -24 -58 -24h-275c-23 0 -42 8 -58 24s-24 35 -24 58v274c0 23 8 42 24 58s35 24 58 24h275c23 0 42 -8 58 -24s24 -35 24 -58z" />
    <glyph glyph-name="uniF1DE" unicode="&#xf1de;" horiz-adv-x="293" 
d="M293 247v-119c0 -8 -3 -14 -8 -19s-12 -8 -20 -8s-14 3 -19 8s-8 11 -8 19v101h-19v-261c0 -9 -3 -17 -9 -23s-14 -9 -23 -9s-16 3 -22 9s-10 14 -10 23v133h-18v-133c0 -9 -3 -17 -9 -23s-14 -9 -23 -9s-16 3 -22 9s-10 14 -10 23v261h-18v-101c0 -8 -3 -14 -8 -19
s-12 -8 -20 -8s-14 3 -19 8s-8 11 -8 19v119c0 15 5 28 16 39s24 16 39 16h183c15 0 28 -5 39 -16s16 -24 16 -39v0zM210 375c0 -18 -6 -33 -18 -45s-28 -19 -46 -19s-33 7 -45 19s-19 27 -19 45s7 33 19 45s27 19 45 19s34 -7 46 -19s18 -27 18 -45z" />
    <glyph glyph-name="uniF17D" unicode="&#xf17d;" horiz-adv-x="512" 
d="M475 18v220c-6 -7 -12 -13 -19 -19c-51 -39 -92 -72 -122 -97c-10 -8 -18 -14 -24 -19s-14 -9 -24 -14s-21 -7 -30 -7v0c-9 0 -20 2 -30 7s-18 9 -24 14s-14 11 -24 19c-30 25 -71 58 -122 97c-7 6 -13 12 -19 19v-220c0 -2 0 -4 2 -6s5 -3 7 -3h420c2 0 5 1 7 3s2 4 2 6
v0zM475 319v7v3l-1 4l-1 2l-3 3h-4h-420c-2 0 -5 0 -7 -2s-2 -5 -2 -7c0 -32 14 -59 42 -81c37 -29 74 -60 114 -91c1 -1 4 -3 10 -8s10 -9 13 -11s8 -5 13 -9s10 -6 14 -8s9 -2 13 -2v0c4 0 9 0 13 2s9 4 14 8s10 7 13 9s7 6 13 11s9 7 10 8c40 31 77 62 114 91
c10 8 20 19 29 33s13 27 13 38v0zM512 329v-311c0 -13 -4 -23 -13 -32s-20 -13 -33 -13h-420c-13 0 -24 4 -33 13s-13 19 -13 32v311c0 13 4 23 13 32s20 14 33 14h420c13 0 24 -5 33 -14s13 -19 13 -32z" />
    <glyph glyph-name="uniF275" unicode="&#xf275;" 
d="M196 229c0 0 -12 22 -36 64c-4 6 -9 10 -15 10h-53c-3 0 -5 -2 -7 -4c-1 -2 -2 -5 0 -8l36 -62v0l-56 -99c-2 -3 -2 -5 0 -8c2 -2 4 -3 7 -3h53c6 0 10 3 14 10zM374 371c-1 2 -4 4 -7 4h-53c-6 0 -10 -3 -14 -10l-118 -208s25 -47 75 -138c4 -7 9 -10 15 -10h53
c3 0 6 2 7 4c2 2 1 5 -1 8l-74 136v0l117 206c2 3 2 6 0 8v0zM439 329v-274c0 -23 -8 -42 -24 -58s-35 -24 -58 -24h-275c-23 0 -42 8 -58 24s-24 35 -24 58v274c0 23 8 42 24 58s35 24 58 24h275c23 0 42 -8 58 -24s24 -35 24 -58z" />
    <glyph glyph-name="uniF235" unicode="&#xf235;" horiz-adv-x="293" 
d="M13 -24c-4 -4 -7 -4 -9 -3s-4 4 -4 9v420c0 5 2 8 4 9s5 1 9 -3l203 -203c2 -2 2 -4 3 -6v194c0 5 2 9 6 13s8 5 13 5h36c5 0 9 -1 13 -5s6 -8 6 -13v-402c0 -5 -2 -9 -6 -13s-8 -5 -13 -5h-36c-5 0 -9 1 -13 5s-6 8 -6 13v194c-1 -2 -1 -4 -3 -6z" />
    </font>
</defs>
</svg>
